<svg width="189" height="41" viewBox="0 0 189 41" fill="none" xmlns="http://www.w3.org/2000/svg">
<path d="M15.6471 28.7532H1.74316L11.9678 14.3766L22.2504 0L32.3976 14.3766L42.6028 28.7532H28.8538L22.2504 19.7279L15.6471 28.7532Z" fill="white"/>
<path d="M16.828 34.9564L22.5406 27.1558L28.2532 34.9564H40.5692L44.9262 40.9999H32.6877H26.4716L22.5406 35.6486L18.6095 40.9999H12.3934H0L4.35707 34.9564H16.828Z" fill="white"/>
<path d="M65.5495 35.6752C72.6951 35.6752 77.6525 29.4986 77.6525 20.1272C77.6525 10.7557 72.6951 4.52588 65.5495 4.52588H56.5449V35.6752H65.5495ZM65.3172 30.0843H61.1925V10.9155H65.3172C69.9647 10.9155 72.424 15.0954 72.424 20.5265C72.424 25.7181 69.8098 30.0843 65.3172 30.0843ZM86.3473 36.2077C88.4387 36.2077 90.3364 35.1694 91.4402 33.3856V35.6752H95.6617V21.4051C95.6617 15.0421 92.2923 13.0454 88.6323 13.0454C86.0955 13.0454 83.5781 14.1369 81.6029 16.5064L83.2102 20.3934C84.5657 18.6629 86.173 17.7843 87.8965 17.7843C90.0266 17.7843 91.4208 19.2486 91.4208 21.485V24.4668C90.3558 22.7363 88.458 21.7778 86.3279 21.7778C83.7718 21.7778 80.7315 23.748 80.7315 28.9129C80.7509 33.8382 83.7718 36.2077 86.3473 36.2077ZM88.0126 32.2142C86.2505 32.2142 84.8175 31.096 84.8175 29.2057C84.8175 27.209 86.2505 26.0908 88.0126 26.0908C89.4456 26.0908 90.8593 26.6765 91.5951 27.8746V30.4304C90.8593 31.6285 89.4456 32.2142 88.0126 32.2142ZM102.943 35.6752V20.8194C103.64 19.4882 104.918 18.2103 106.564 18.2103C108.346 18.2103 109.488 19.2486 109.488 22.3369V35.6752H113.671V20.0739C113.671 15.7876 111.986 13.0454 108.501 13.0454C105.906 13.0454 103.95 14.7759 102.943 16.4798V13.6045H98.7601V35.6752H102.943ZM122.366 36.2077C124.457 36.2077 126.355 35.1694 127.459 33.3856V35.6752H131.68V21.4051C131.68 15.0421 128.311 13.0454 124.651 13.0454C122.114 13.0454 119.597 14.1369 117.621 16.5064L119.229 20.3934C120.584 18.6629 122.191 17.7843 123.915 17.7843C126.045 17.7843 127.439 19.2486 127.439 21.485V24.4668C126.374 22.7363 124.476 21.7778 122.346 21.7778C119.79 21.7778 116.75 23.748 116.75 28.9129C116.769 33.8382 119.79 36.2077 122.366 36.2077ZM124.031 32.2142C122.269 32.2142 120.836 31.096 120.836 29.2057C120.836 27.209 122.269 26.0908 124.031 26.0908C125.464 26.0908 126.878 26.6765 127.614 27.8746V30.4304C126.878 31.6285 125.464 32.2142 124.031 32.2142ZM143.318 35.6752C146.63 35.6752 148.624 33.7051 149.689 31.6551L146.92 28.1408C146.146 29.6051 144.984 30.5103 143.512 30.5103C140.937 30.5103 139.136 27.9012 139.136 24.0674C139.136 20.2337 140.937 17.6778 143.512 17.6778C144.984 17.6778 146.146 18.5032 146.92 20.0473L149.689 16.4798C148.624 14.4564 146.63 12.5129 143.318 12.5129C138.342 12.5129 134.779 17.3051 134.779 24.0674C134.779 30.883 138.342 35.6752 143.318 35.6752ZM155.112 10.9155C156.39 10.9155 157.435 9.47783 157.435 7.69406C157.435 5.91029 156.39 4.52588 155.112 4.52588C153.853 4.52588 152.788 5.91029 152.788 7.69406C152.788 9.47783 153.853 10.9155 155.112 10.9155ZM157.048 35.409V13.5778H152.981V35.409H157.048ZM167.428 35.6752C169.209 35.6752 170.352 35.0096 170.991 34.2109L170.08 29.685C169.848 30.0045 169.248 30.3506 168.609 30.3506C167.66 30.3506 167.137 29.259 167.137 27.848V17.5713H170.429V12.3532H167.137V6.12328H162.838V12.3532H160.146V17.5713H162.838V29.4454C162.838 33.5187 164.445 35.6752 167.428 35.6752ZM179.685 36.2077C181.777 36.2077 183.675 35.1694 184.778 33.3856V35.6752H189V21.4051C189 15.0421 185.63 13.0454 181.97 13.0454C179.434 13.0454 176.916 14.1369 174.941 16.5064L176.548 20.3934C177.904 18.6629 179.511 17.7843 181.235 17.7843C183.365 17.7843 184.759 19.2486 184.759 21.485V24.4668C183.694 22.7363 181.796 21.7778 179.666 21.7778C177.11 21.7778 174.07 23.748 174.07 28.9129C174.089 33.8382 177.11 36.2077 179.685 36.2077ZM181.351 32.2142C179.589 32.2142 178.156 31.096 178.156 29.2057C178.156 27.209 179.589 26.0908 181.351 26.0908C182.784 26.0908 184.197 26.6765 184.933 27.8746V30.4304C184.197 31.6285 182.784 32.2142 181.351 32.2142Z" fill="white"/>
</svg>
