<?xml version="1.0" encoding="utf-8"?>
<!-- Generator: Adobe Illustrator 21.0.0, SVG Export Plug-In . SVG Version: 6.00 Build 0)  -->
<svg version="1.1" id="Layer_1" xmlns="http://www.w3.org/2000/svg" xmlns:xlink="http://www.w3.org/1999/xlink" x="0px" y="0px"
	 viewBox="0 0 976 154" style="enable-background:new 0 0 976 154;" xml:space="preserve">
<style type="text/css">
	.st0{fill:#FFFFFF;}
</style>
<title>Logo Danacita V2</title>
<desc>Created with Sketch.</desc>
<g id="Branding">
	<g id="Desktop-HD" transform="translate(-184.000000, -448.000000)">
		<g id="Logo-Danacita-V2" transform="translate(184.000000, 448.000000)">
			<g id="Logo-mark">
				<polygon id="Combined-Shape" class="st0" points="80.8,108 9,108 61.8,54 114.9,0 167.3,54 220,108 149,108 114.9,74.1 				"/>
				<polygon id="Combined-Shape_1_" class="st0" points="86.9,131.3 116.4,102 145.9,131.3 209.5,131.3 232,154 168.8,154 
					136.7,154 116.4,133.9 96.1,154 64,154 0,154 22.5,131.3 				"/>
			</g>
			<g id="Logo-type" transform="translate(292.000000, 17.000000)">
				<path id="Danacita" class="st0" d="M46.5,117c36.9,0,62.5-23.2,62.5-58.4S83.4,0,46.5,0H0v117H46.5z M45.3,96H24V24h21.3
					C69.3,24,82,39.7,82,60.1C82,79.6,68.5,96,45.3,96z M153.9,119c10.8,0,20.6-3.9,26.3-10.6v8.6H202V63.4
					c0-23.9-17.4-31.4-36.3-31.4c-13.1,0-26.1,4.1-36.3,13l8.3,14.6c7-6.5,15.3-9.8,24.2-9.8c11,0,18.2,5.5,18.2,13.9v11.2
					c-5.5-6.5-15.3-10.1-26.3-10.1c-13.2,0-28.9,7.4-28.9,26.8C125,110.1,140.6,119,153.9,119z M162.5,104
					c-9.1,0-16.5-4.2-16.5-11.3c0-7.5,7.4-11.7,16.5-11.7c7.4,0,14.7,2.2,18.5,6.7v9.6C177.2,101.8,169.9,104,162.5,104z M239.6,117
					V61.2c3.6-5,10.2-9.8,18.7-9.8c9.2,0,15.1,3.9,15.1,15.5V117H295V58.4c0-16.1-8.7-26.4-26.7-26.4c-13.4,0-23.5,6.5-28.7,12.9
					V34.1H218V117H239.6z M339.9,119c10.8,0,20.6-3.9,26.3-10.6v8.6H388V63.4c0-23.9-17.4-31.4-36.3-31.4c-13.1,0-26.1,4.1-36.3,13
					l8.3,14.6c7-6.5,15.3-9.8,24.2-9.8c11,0,18.2,5.5,18.2,13.9v11.2c-5.5-6.5-15.3-10.1-26.3-10.1c-13.2,0-28.9,7.4-28.9,26.8
					C311,110.1,326.6,119,339.9,119z M348.5,104c-9.1,0-16.5-4.2-16.5-11.3c0-7.5,7.4-11.7,16.5-11.7c7.4,0,14.7,2.2,18.5,6.7v9.6
					C363.2,101.8,355.9,104,348.5,104z M448.1,117c17.1,0,27.4-7.4,32.9-15.1l-14.3-13.2c-4,5.5-10,8.9-17.6,8.9
					c-13.3,0-22.6-9.8-22.6-24.2s9.3-24,22.6-24c7.6,0,13.6,3.1,17.6,8.9L481,44.9c-5.5-7.6-15.8-14.9-32.9-14.9
					C422.4,30,404,48,404,73.4C404,99,422.4,117,448.1,117z M509,24c6.6,0,12-5.4,12-12.1S515.6,0,509,0c-6.5,0-12,5.2-12,11.9
					S502.5,24,509,24z M519,116V34h-21v82H519z M572.6,117c9.2,0,15.1-2.5,18.4-5.5l-4.7-17c-1.2,1.2-4.3,2.5-7.6,2.5
					c-4.9,0-7.6-4.1-7.6-9.4V49h17V29.4h-17V6h-22.2v23.4H535V49h13.9v44.6C548.9,108.9,557.2,117,572.6,117z M635.9,119
					c10.8,0,20.6-3.9,26.3-10.6v8.6H684V63.4c0-23.9-17.4-31.4-36.3-31.4c-13.1,0-26.1,4.1-36.3,13l8.3,14.6
					c7-6.5,15.3-9.8,24.2-9.8c11,0,18.2,5.5,18.2,13.9v11.2c-5.5-6.5-15.3-10.1-26.3-10.1c-13.2,0-28.9,7.4-28.9,26.8
					C607,110.1,622.6,119,635.9,119z M644.5,104c-9.1,0-16.5-4.2-16.5-11.3c0-7.5,7.4-11.7,16.5-11.7c7.4,0,14.7,2.2,18.5,6.7v9.6
					C659.2,101.8,651.9,104,644.5,104z"/>
			</g>
		</g>
	</g>
</g>
</svg>
