<svg width="189" height="41" viewBox="0 0 189 41" fill="none" xmlns="http://www.w3.org/2000/svg">
<g clip-path="url(#clip0)">
<path d="M52.29 -0.0131836L52.332 8.13646H16.59V10.7868H39.69V18.7376H16.59V21.3879H58.59V-0.0131836H112.98L112.434 19.6785L105.147 21.4807L112.518 25.7476L131.901 -0.0131836H150.948L168.504 21.0434L189 21.3084L183.666 29.4581L156.492 29.3388L140.847 10.9988L117.999 40.9736L79.821 19.8375L96.39 15.8753V8.13646H75.663V29.3388L3.90708e-05 29.3785L-0.209961 -0.0131836H52.29Z" fill="white"/>
<path d="M2.814 36.7202H6.699V37.7538H2.814V39.874H7.686V40.9077H0V33.6724H7.707V34.706H2.814V36.7202Z" fill="white"/>
<path d="M18.8788 33.6719L15.9178 37.1835L19.0678 40.9072H16.1068L13.8178 38.0448H13.7758L11.4658 40.9072H8.79883L11.9488 37.1835L8.98783 33.6719H11.9068L14.0068 36.3354H14.0488L16.2118 33.6719H18.8788V33.6719Z" fill="white"/>
<path d="M28.8751 35.4608V36.4017C28.8751 37.5545 27.4891 38.1906 24.6541 38.1906H23.3101V40.9072H20.4961V33.6719H24.6541C27.4891 33.6719 28.8751 34.3079 28.8751 35.4608ZM23.3311 34.7055V37.157H24.6751C25.5781 37.157 26.0611 36.998 26.0611 36.4812V35.3946C26.0611 34.8778 25.5781 34.7187 24.6751 34.7187H23.3311V34.7055Z" fill="white"/>
<path d="M33.0118 36.7197H36.8968V37.7533H33.0118V39.8735H37.8838V40.9072H30.1768V33.6719H37.8838V34.7055H33.0118V36.7197Z" fill="white"/>
<path d="M45.5494 40.9072C45.4024 40.7216 45.2974 40.6024 45.2974 40.0193V38.8797C45.2974 38.2039 44.7304 37.9653 43.4494 37.9653H42.4834V40.9072H39.6484V33.6719H43.8904C46.8094 33.6719 48.0694 34.2152 48.0694 35.3416V35.9114C48.0694 36.6534 47.4814 37.1305 46.2214 37.369V37.3955C47.6284 37.6341 48.0904 38.1774 48.0904 38.9194V40.0326C48.0904 40.3903 48.1114 40.6421 48.4054 40.9072H45.5494ZM42.4624 34.7055V36.9317H43.5754C44.6254 36.9317 45.2764 36.7462 45.2764 36.1631V35.4476C45.2764 34.9308 44.8354 34.7055 43.8274 34.7055H42.4624Z" fill="white"/>
<path d="M49.959 33.6719H52.794V40.9072H49.959V33.6719Z" fill="white"/>
<path d="M57.6661 36.7197H61.5511V37.7533H57.6661V39.8735H62.538V40.9072H54.8311V33.6719H62.538V34.7055H57.6661V36.7197Z" fill="white"/>
<path d="M66.8638 35.6728H66.8218V40.9072H64.2598V33.6719H67.8088L70.6648 38.0051H70.7068V33.6719H73.2268V40.9072H70.3288L66.8638 35.6728Z" fill="white"/>
<path d="M83.4537 38.2175V39.1848C83.4537 40.3377 82.0047 41.0003 79.2327 41.0003C76.4607 41.0003 75.0117 40.3377 75.0117 39.1848V35.4214C75.0117 34.2685 76.4607 33.606 79.2327 33.606C82.0047 33.606 83.4537 34.2685 83.4537 35.4214V36.1237H80.7867V35.3419C80.7867 34.8251 80.2197 34.6263 79.3167 34.6263C78.4137 34.6263 77.8467 34.8251 77.8467 35.3419V39.2511C77.8467 39.7679 78.4137 39.9534 79.3167 39.9534C80.2197 39.9534 80.7867 39.7679 80.7867 39.2511V38.2175H83.4537V38.2175Z" fill="white"/>
<path d="M88.0118 36.7197H91.8968V37.7533H88.0118V39.8735H92.8838V40.9072H85.1768V33.6719H92.8838V34.7055H88.0118V36.7197Z" fill="white"/>
</g>
<defs>
<clipPath id="clip0">
<rect width="189" height="41" fill="white"/>
</clipPath>
</defs>
</svg>
