<?xml version="1.0" encoding="utf-8"?>
<!-- Generator: Adobe Illustrator 21.0.0, SVG Export Plug-In . SVG Version: 6.00 Build 0)  -->
<svg version="1.1" id="Layer_1" xmlns="http://www.w3.org/2000/svg" xmlns:xlink="http://www.w3.org/1999/xlink" x="0px" y="0px"
	 viewBox="0 0 961 213" style="enable-background:new 0 0 961 213;" xml:space="preserve">
<style type="text/css">
	.st0{fill:#FFFFFF;}
</style>
<g>
	<path class="st0" d="M818.1,213.2c-2.8-1.2-5.9-2-8.4-3.9c-5.6-4.3-8.8-9.8-8.9-16.9c-0.1-2.2,0-4.5,0-6.7c0.2,0,0.4-0.1,0.5-0.1
		c6.6,4.9,13.4,4.1,20,0.2c12.3-7.2,24.6-14.7,36.8-22c12.6-7.5,25.2-15.1,37.8-22.7c1.4-0.9,2.2-0.8,3.4,0.4
		c18.7,18.8,37.4,37.5,56.1,56.2c2.1,2.1,4.2,4.2,4.8,7.3c0.4,1,0.1,2.1,0.2,3.1c-0.3,2.5-1.6,4-4,4.6c-0.8,0.2-1.7,0.1-2.5,0.5
		c-0.6,0-1.3,0-1.9,0c-0.8-0.5-1.7-0.2-2.6-0.2c-42.6,0-85.2,0-127.8,0c-0.9,0-1.8-0.2-2.6,0.2C818.7,213.2,818.4,213.2,818.1,213.2
		z"/>
	<path class="st0" d="M819,213.2c0.7-0.8,1.6-0.5,2.5-0.5c42.7,0,85.3,0,128,0c0.8,0,1.8-0.3,2.5,0.5
		C907.7,213.2,863.4,213.2,819,213.2z"/>
	<path class="st0" d="M953.9,213.2c1.5-1,3.4-1.1,4.8-2.4c0.7-0.7,1.4-1.3,1.5-2.3c0.1-0.3,0.2-0.3,0.4-0.1c0,1.6,0,3.2,0,4.8
		c-1.6,0-3.2,0-4.8,0C955.2,213.2,954.6,213.2,953.9,213.2z"/>
	<path class="st0" d="M960.6,8.7c-0.1,0.1-0.3,0.1-0.4,0.1c-1-1.2-1-2.4,0-3.5c0.1,0,0.3,0,0.4,0.1C960.6,6.5,960.6,7.6,960.6,8.7z"
		/>
	<path class="st0" d="M960.6,208.4c-0.1,0-0.3,0.1-0.4,0.1c0-1.2,0-2.3,0-3.5c0.1,0,0.3,0.1,0.4,0.1
		C960.6,206.2,960.6,207.3,960.6,208.4z"/>
	<path class="st0" d="M960.2,5.3c0,1.2,0,2.4,0,3.5c-0.8,3.2-3,5.4-5.2,7.6c-15.3,15.3-30.5,30.5-45.8,45.8c-3.3,3.3-6.7,6.6-10,10
		c-1.2,1.3-2,1.2-3.4,0.4c-24.6-14.8-49.2-29.5-73.8-44.2c-2.6-1.6-5.4-2.9-8.4-3.3c-4.6-0.7-8.9,0.2-12.6,3.3
		c-3.2-18.2,9.6-28,21.6-27.9c42.2,0.2,84.4,0.1,126.7,0.1c2.3,0,4.6,0.1,6.8,1C958,2.2,959.7,3.2,960.2,5.3z"/>
	<path class="st0" d="M864.7,106.9c-7.5,7.5-14.9,14.9-22.3,22.3c-8.7,8.6-17.3,17.3-26,26c-1.5,1.5-3,2.9-4.8,3.9
		c-5,2.9-8.9,1.2-10.3-4.4c-0.6-2.3-0.5-4.6-0.5-6.9c0-26.2,0-52.5,0-78.7c0-1.9-0.1-3.8,0.1-5.8c0.2-3.7,0.4-7.7,4.4-9.4
		c4-1.7,7.1,0.9,9.8,3.5c9.1,8.9,18,17.9,27,26.9C849.5,91.7,857,99.3,864.7,106.9z"/>
	<path class="st0" d="M483.9,89.5c2,3.3,2.4,6.9,2.4,10.5c0,11.8,0,23.5,0.1,35.3c0,1.6-0.5,1.8-1.9,1.8c-3.6-0.1-7.2-0.1-10.8,0
		c-1.7,0.1-2.1-0.5-2.1-2.2c0.1-11.7,0-23.4,0-35c0-1.4-0.1-2.9-0.4-4.3c-0.8-3.7-3.3-5.9-7-6.7c-4.9-1-9.9-0.5-14.8,0.1
		c-1.6,0.2-1.3,1.2-1.3,2.3c0,14.5,0,29,0,43.4c0,1.9-0.4,2.4-2.3,2.3c-3.5-0.2-7-0.1-10.6,0c-1.3,0-1.8-0.3-1.8-1.7
		c0.1-17.2,0-34.4,0-51.6c0-0.9,0.1-1.5,1-1.9c10.7-5,21.8-7.8,33.7-5.4c2,0.4,4.1,1,5.8,2.1c1.9,1.2,3.4,1.2,5.5,0.4
		c8.6-3,17.5-4.6,26.6-2.6c10.5,2.2,17.6,9.9,18,20.5c0.5,12.9,0.2,25.9,0.3,38.9c0,1.1-0.5,1.3-1.4,1.3c-3.9,0-7.8-0.1-11.8,0
		c-1.8,0.1-1.4-1-1.4-2c0-11.5,0-23,0-34.6c0-1.6-0.1-3.2-0.5-4.8c-1-4.2-3.6-6.5-8.2-7.2C495.4,87.6,489.7,88.2,483.9,89.5z"/>
	<path class="st0" d="M893.9,77.6c-8.3,8.3-16.5,16.4-24.6,24.6c-1.4,1.4-1.9,0.1-2.6-0.5c-13.8-13.7-27.5-27.5-41.2-41.2
		c-2.5-2.5-5.1-5.1-7.7-7.5c-2.9-2.7-6.3-4.6-10.5-4.8c-2.3-0.1-4.4,0.7-6.6,2c0.1-4.4-0.5-8.5,0.7-12.5c1.7-6,6.6-8.7,12.6-7.1
		c1.9,0.5,3.7,1.4,5.4,2.5c24.3,14.6,48.7,29.1,73,43.7C892.9,76.9,893.3,77.2,893.9,77.6z"/>
	<path class="st0" d="M894.3,136c-7.8,4.7-15.1,9-22.5,13.4c-17.3,10.3-34.5,20.7-51.8,31c-1.8,1.1-3.6,2-5.6,2.6
		c-6.4,1.9-11.5-1.1-13.1-7.6c-0.9-3.8-0.4-7.7-0.6-11.9c6.3,3.8,11.6,1.7,16.5-2.2c1.3-1.1,2.5-2.2,3.7-3.4
		c15.3-15.3,30.6-30.5,45.8-45.8c1.3-1.3,2-1.3,3.3,0c7.4,7.5,14.9,15,22.4,22.4C892.8,135.1,893.5,135.4,894.3,136z"/>
	<path class="st0" d="M317,98.6c3.3-3.6,6.1-6.6,8.9-9.6c3.4-3.7,6.8-7.4,10.2-11.2c0.9-1,1.8-1.4,3.1-1.3c5.7,0.1,11.3,0,17.4,0
		c-0.9,0.9-1.5,1.6-2.1,2.3c-7.6,7.8-15.2,15.6-22.8,23.3c-1,1-1.2,1.6-0.1,2.8c8.9,10.2,17.7,20.4,26.6,30.6
		c0.3,0.4,0.7,0.8,1.3,1.5c-6.2,0-11.9,0-17.7,0c-1,0-1.3-0.8-1.8-1.4c-5.8-6.9-11.7-13.8-17.4-20.8c-1.1-1.3-1.6-1.6-3-0.2
		c-1.9,1.8-2.6,3.7-2.5,6.3c0.2,4.8,0,9.6,0.1,14.4c0,1.3-0.3,1.8-1.7,1.7c-3.5-0.1-7-0.1-10.6,0c-1.8,0.1-2.4-0.4-2.4-2.3
		c0.1-25.4,0-50.7,0-76.1c0-4.8,0-4.8,4.8-4.8c2.6,0,5.1,0.1,7.7,0c1.7-0.1,2.1,0.4,2.1,2.1c-0.1,13.2,0,26.4,0,39.6
		C317,96.2,317,97,317,98.6z"/>
	<path class="st0" d="M663.8,97.3c-0.3,5.9,0.6,12.9-0.7,19.9c-2.2,11.9-10.7,19.6-22.9,20.6c-4.5,0.4-9,0.2-13.3-1.1
		c-10.5-3.1-17.1-11.8-17.5-24c-0.4-11.6-0.1-23.2-0.2-34.8c0-1.2,0.4-1.5,1.5-1.5c3.7,0.1,7.4,0.1,11,0c1.7-0.1,2.1,0.5,2.1,2.1
		c-0.1,10.8,0,21.6,0,32.4c0,2.3,0.2,4.6,0.8,6.9c1,3.5,3.3,5.7,6.9,6.6c3,0.7,6,0.8,9,0.2c5.5-1.1,8.3-4.4,8.5-10.8
		c0.2-7.4,0.1-14.7,0.1-22.1c0-4.5,0.1-9,0-13.4c0-1.4,0.3-1.9,1.8-1.9c3.7,0.1,7.4,0.1,11,0c1.6,0,1.8,0.5,1.8,1.9
		C663.8,84.3,663.8,90.2,663.8,97.3z"/>
	<path class="st0" d="M932.3,107.3c-0.3,4.5-3.2,7.8-7.2,10.2c-6,3.7-12.1,7.2-18.1,10.8c-2.3,1.4-4.7,2.7-7,4.2
		c-1,0.6-1.7,0.8-2.6-0.2c-8-8.1-16.1-16.2-24.2-24.3c-1-0.9-1-1.5,0-2.5c8.1-8,16.2-16.1,24.2-24.3c0.9-1,1.6-0.9,2.6-0.2
		c8.3,5,16.6,9.9,24.9,14.9C929.7,99,932.3,102.8,932.3,107.3z"/>
	<path class="st0" d="M716.4,90.9c-6-2.5-12-3.4-18.1-2.6c-0.3,0-0.6,0.1-1,0.1c-3.2,0.6-5.2,2.2-5.3,4.4c-0.1,2.8,2,4,4.3,4.8
		c4,1.4,8.1,2.5,12,4c9.1,3.5,13.4,10.6,12.5,20.5c-0.7,7.3-6.9,13.5-15.6,15.1c-8.5,1.6-16.7,0.4-24.5-3.4
		c-1.3-0.6-1.7-1.4-1.7-2.8c0.1-3.6,0-7.1,0-11c4.2,2.6,8.4,4.4,13,5c3.4,0.4,6.7,0.5,10-0.2c2.3-0.5,3.7-1.8,4.1-4.1
		c0.4-2.3-0.6-4-2.6-5.2c-2.4-1.4-5.1-2.3-7.7-3.1c-2.8-0.9-5.6-1.8-8.4-2.9c-5.6-2.4-9.3-6.5-10-12.7c-0.7-6.6,0.8-12.5,6.5-16.5
		c8.7-6.1,18.1-5.9,27.7-2.6c4.7,1.6,4.6,1.7,4.6,6.7C716.4,86.5,716.4,88.6,716.4,90.9z"/>
	<path class="st0" d="M192,109.1c0-8.6,0-17.1,0-25.7c0-1.6,0.4-2.4,1.9-3.1c10.2-4.3,20.8-6.4,31.8-4c9.5,2,15.5,8.9,15.8,18.6
		c0.4,13.6,0.1,27.2,0.2,40.8c0,1.1-0.4,1.4-1.4,1.3c-2.4-0.1-5.3,0.7-7-0.4c-1.4-1-0.4-4.2-0.4-6.4c0-10.5,0-20.9,0-31.4
		c0-1.9-0.1-3.8-0.6-5.7c-1.4-5.1-5.1-7.7-10.2-8.5c-6.8-1-13.4,0-19.9,1.6c-1.6,0.4-1.4,1.4-1.4,2.5c0,15.3-0.1,30.5,0.1,45.8
		c0,2.2-0.6,2.7-2.6,2.5c-2-0.2-4.6,0.6-5.8-0.4c-1.3-1.2-0.4-3.9-0.4-5.9C192,123.5,192,116.3,192,109.1z"/>
	<path class="st0" d="M115.7,76.5c-2.8,7.2-5.4,14-8,20.8c-4.8,12.6-9.7,25.1-14.4,37.7c-0.6,1.5-1.3,2.1-2.9,2
		c-2.2-0.2-5,0.8-6.5-0.4c-1.5-1.2-1.8-3.9-2.6-6C74.4,113,67.7,95.3,60.9,77.7c-0.1-0.3-0.2-0.6-0.5-1.2c3,0,5.7,0,8.4,0
		c1.4,0,1.3,1.2,1.6,2c5.7,15.3,11.3,30.6,17,46c0.1,0.4,0.1,0.8,0.8,1c3.1-8.5,6.2-16.9,9.4-25.4c2.7-7.3,5.4-14.6,8.1-22
		c0.4-1.2,1-1.7,2.4-1.7C110.5,76.6,112.9,76.5,115.7,76.5z"/>
	<path class="st0" d="M287.3,128.3c0,2.5-0.1,4.6,0,6.8c0.1,1.2-0.5,1.6-1.6,1.9c-5.7,1.6-11.3,1.2-16.4-1.8
		c-3.9-2.3-5.5-6.1-6.1-10.3c-0.3-2-0.3-4-0.3-6c0-10.9,0-21.7,0-32.6c0-1.5-0.3-1.9-1.8-1.9c-2.4,0.1-4.8,0-7.2,0.1
		c-1.1,0-1.5-0.3-1.5-1.5c-0.3-6.6-0.3-6.6,6.2-6.6c4.3,0,4.3,0,4.3-4.4c0-3.6,0.1-7.2,0-10.8c0-1.4,0.2-2.1,1.8-1.9
		c2.3,0.2,5.3-0.9,6.7,0.4c1.3,1.2,0.3,4.2,0.4,6.4c0.1,2.9,0.1,5.8,0,8.6c0,1.3,0.3,1.6,1.6,1.6c4-0.1,8,0,12-0.1
		c1.4,0,2.3,0.2,2,1.9c-0.2,2,0.8,4.5-0.4,5.8c-1.2,1.2-3.8,0.3-5.8,0.4c-2.6,0.1-5.1,0.1-7.7,0c-1.3,0-1.8,0.2-1.8,1.6
		c0.1,11.9,0,23.8,0.1,35.7c0,5.5,2.3,7.6,7.8,7.8C282.2,129.8,284.6,129.2,287.3,128.3z"/>
	<path class="st0" d="M592.9,94.9c-2.4-9-7.6-15.5-16.7-18c-8-2.3-16.1-1.9-23.6,1.8c-6.6,3.2-10.4,8.9-10.5,16.3
		c-0.2,20.9-0.1,41.9-0.1,62.8c0,1.4,0.5,1.7,1.8,1.7c3.4-0.1,6.9-0.1,10.3,0c1.9,0.1,2.6-0.4,2.5-2.4c-0.2-6.5-0.1-13.1-0.1-19.8
		c4.1,0.8,8.1,1.2,12.1,1c12.9-0.6,21.7-7.6,24.6-19.8C595.1,110.6,594.9,102.7,592.9,94.9z M578.5,118.5c-1.5,5.3-5.6,7.7-10.9,8.3
		c-3.3,0.3-6.5-0.1-9.8-0.4c-1.3-0.1-1.3-0.8-1.3-1.8c0-5,0-10.1,0-15.1c0-4.8,0-9.6,0-14.4c0-3.2,1.3-5.1,4.4-6.1
		c3.3-1.1,6.8-1.2,10.2-0.5c3.5,0.7,5.9,3,6.9,6.3C580.4,102.7,580.7,110.6,578.5,118.5z"/>
	<path class="st0" d="M417.2,96.9c-0.7-10.1-6.6-17.4-15.9-20c-9.4-2.6-18.7-1.6-27.9,1.2c-0.9,0.3-1.3,0.6-1.3,1.6
		c0.1,3.5,0,7,0,10.5c1.1,0.2,1.8-0.4,2.7-0.6c6.2-1.8,12.5-2.7,18.9-1.8c5.2,0.8,7.9,3.6,8.8,8.7c0.3,1.9,0.2,2.5-2,2.2
		c-5.8-0.9-11.6-1-17.4,0.2c-5.8,1.2-11.2,3.3-14.5,8.8c-6.4,10.8-1.1,24.6,11.2,28.4c7.8,2.5,15.8,2.5,23.6,0.1
		c7.9-2.4,13.5-9.2,13.8-16.9C417.6,111.9,417.8,104.4,417.2,96.9z M389.2,124.9c-5.1-0.6-8.1-3.4-8.5-8.1c-0.4-4.2,1.3-6.8,5.4-8.2
		c3.7-1.2,7.5-1.2,11.4-0.9c5.5,0.3,5.5,0.4,5.5,5.8C402.9,122.8,399,126,389.2,124.9z"/>
	<path class="st0" d="M52.9,98.6c-2.1-10.1-6.3-18.6-17.1-22c-3.9-1.2-7.8-1.4-11.9-1.2c-11.5,0.8-19,7-21.8,18.2
		C0.2,101.4,0,109.2,1.5,117c2.3,12.4,9,18.8,21.4,20.5c7.5,1.1,15,0.4,22.3-2c4.6-1.5,4.6-1.5,4.6-6.1c0-1.4,0-2.9,0-4.7
		c-7.3,3.9-14.9,4.6-22.6,4.4c-10.2-0.3-15.9-5.4-17.4-15c-0.3-2.1,0.3-2.3,2.1-2.3c13.2,0.1,26.4,0,39.6,0.1c1.7,0,2.1-0.4,2.2-2.1
		C53.7,106.1,53.6,102.3,52.9,98.6z M40.6,104.1c-4.5,0-8.9,0-13.4,0c-5.3,0-10.5-0.1-15.8,0c-1.6,0-2-0.4-1.8-2
		c0.5-3.7,1-7.3,2.6-10.6c1.3-2.8,3.2-4.9,6.1-6.1c5.2-2.1,10.6-2.4,15.9-0.4c6.7,2.5,8.8,8.3,10.2,14.6
		C45.3,104.1,45.2,104.1,40.6,104.1z"/>
	<path class="st0" d="M176.3,98.6c-2.1-10.2-6.4-18.8-17.3-22.1c-3.9-1.2-7.9-1.4-11.9-1.1c-11.5,0.9-18.9,7.2-21.6,18.4
		c-2,8-2,16.2-0.4,24.3c1.9,9.6,7.5,16.1,17,18.5c10,2.6,20,1.4,29.6-2.2c1-0.4,1.5-0.9,1.5-2.1c-0.1-2.4,0-4.8,0-7.6
		c-7.3,3.9-14.9,4.6-22.6,4.4c-10.2-0.3-16-5.4-17.4-15c-0.3-2,0.2-2.3,2.1-2.3c13.2,0.1,26.4,0,39.6,0.1c1.6,0,2.2-0.4,2.2-2.1
		C177,106.1,177,102.3,176.3,98.6z M166.3,104.2c-5.3-0.1-10.5,0-15.8,0c-5.3,0-10.5,0-15.8,0c-1.4,0-2-0.2-1.8-1.8
		c0.5-3.7,1-7.4,2.6-10.9c1.4-3,3.5-5.2,6.6-6.3c4.9-1.9,10-2.2,15-0.4c4.2,1.5,7.2,4.3,8.8,8.6c1.1,2.8,1.9,5.7,2.3,8.8
		C168.3,103.6,168,104.2,166.3,104.2z"/>
</g>
</svg>
