<svg width="189" height="41" viewBox="0 0 189 41" fill="none" xmlns="http://www.w3.org/2000/svg">
<g clip-path="url(#clip0)">
<path d="M160.896 41.0386C160.345 40.8076 159.735 40.6536 159.243 40.2879C158.142 39.4602 157.513 38.4015 157.493 37.0348C157.473 36.6113 157.493 36.1686 157.493 35.7451C157.532 35.7451 157.572 35.7259 157.591 35.7259C158.889 36.6691 160.227 36.5151 161.525 35.7644C163.944 34.3785 166.363 32.9348 168.762 31.5296C171.24 30.086 173.718 28.6231 176.196 27.1602C176.472 26.9869 176.629 27.0062 176.865 27.2372C180.543 30.8559 184.221 34.4555 187.898 38.055C188.311 38.4592 188.724 38.8634 188.842 39.4602C188.921 39.6526 188.862 39.8644 188.882 40.0569C188.823 40.5381 188.567 40.8268 188.095 40.9423C187.938 40.9808 187.761 40.9616 187.603 41.0386C187.485 41.0386 187.348 41.0386 187.23 41.0386C187.072 40.9423 186.895 41.0001 186.718 41.0001C178.34 41.0001 169.962 41.0001 161.584 41.0001C161.407 41.0001 161.23 40.9616 161.073 41.0386C161.014 41.0386 160.955 41.0386 160.896 41.0386Z" fill="white"/>
<path d="M161.072 41.0385C161.21 40.8845 161.387 40.9422 161.564 40.9422C169.962 40.9422 178.34 40.9422 186.738 40.9422C186.895 40.9422 187.092 40.8845 187.229 41.0385C178.517 41.0385 169.804 41.0385 161.072 41.0385Z" fill="white"/>
<path d="M187.604 41.0387C187.899 40.8462 188.272 40.8269 188.548 40.5767C188.685 40.4419 188.823 40.3265 188.843 40.134C188.862 40.0762 188.882 40.0762 188.921 40.1147C188.921 40.4227 188.921 40.7307 188.921 41.0387C188.607 41.0387 188.292 41.0387 187.977 41.0387C187.859 41.0387 187.741 41.0387 187.604 41.0387Z" fill="white"/>
<path d="M188.921 1.67448C188.902 1.69373 188.862 1.69373 188.843 1.69373C188.646 1.46274 188.646 1.23176 188.843 1.02002C188.862 1.02002 188.902 1.02002 188.921 1.03927C188.921 1.25101 188.921 1.46274 188.921 1.67448Z" fill="white"/>
<path d="M188.921 40.1144C188.902 40.1144 188.862 40.1337 188.843 40.1337C188.843 39.9027 188.843 39.6909 188.843 39.46C188.862 39.46 188.902 39.4792 188.921 39.4792C188.921 39.6909 188.921 39.9027 188.921 40.1144Z" fill="white"/>
<path d="M188.842 1.02028C188.842 1.25127 188.842 1.48225 188.842 1.69399C188.685 2.30995 188.252 2.73343 187.82 3.1569C184.811 6.10197 181.821 9.02779 178.812 11.9729C178.163 12.6081 177.495 13.2433 176.846 13.8977C176.61 14.148 176.452 14.1287 176.177 13.9747C171.339 11.1259 166.501 8.29634 161.663 5.46676C161.151 5.15878 160.601 4.90854 160.011 4.83155C159.106 4.69681 158.26 4.87005 157.533 5.46676C156.903 1.96347 159.421 0.0770884 161.781 0.0963373C170.08 0.134835 178.38 0.115586 186.699 0.115586C187.151 0.115586 187.603 0.134835 188.036 0.308074C188.41 0.423567 188.744 0.616056 188.842 1.02028Z" fill="white"/>
<path d="M170.06 20.577C168.585 22.0207 167.13 23.4451 165.675 24.8695C163.964 26.5249 162.272 28.1995 160.561 29.8742C160.266 30.1629 159.971 30.4324 159.617 30.6249C158.634 31.1831 157.867 30.8559 157.592 29.7779C157.474 29.3352 157.493 28.8925 157.493 28.4498C157.493 23.4066 157.493 18.3441 157.493 13.3009C157.493 12.9352 157.474 12.5695 157.513 12.1845C157.552 11.4723 157.592 10.7024 158.378 10.3751C159.165 10.0479 159.775 10.5484 160.306 11.0488C162.095 12.762 163.846 14.4944 165.616 16.2268C167.071 17.6512 168.546 19.1141 170.06 20.577Z" fill="white"/>
<path d="M95.1682 17.2278C95.5615 17.8631 95.6402 18.556 95.6402 19.249C95.6402 21.5203 95.6402 23.7724 95.6598 26.0438C95.6598 26.3518 95.5615 26.3903 95.2862 26.3903C94.5782 26.371 93.8701 26.371 93.1621 26.3903C92.8278 26.4095 92.7491 26.294 92.7491 25.9668C92.7688 23.7147 92.7491 21.4626 92.7491 19.2297C92.7491 18.9602 92.7295 18.6715 92.6705 18.402C92.5131 17.6898 92.0214 17.2663 91.2938 17.1124C90.3301 16.9199 89.3467 17.0161 88.383 17.1316C88.0684 17.1701 88.1274 17.3626 88.1274 17.5743C88.1274 20.3654 88.1274 23.1565 88.1274 25.9283C88.1274 26.294 88.0487 26.3903 87.675 26.371C86.9867 26.3325 86.2983 26.3518 85.5903 26.371C85.3347 26.371 85.2363 26.3133 85.2363 26.0438C85.256 22.733 85.2363 19.4222 85.2363 16.1114C85.2363 15.9382 85.256 15.8227 85.433 15.7457C87.5374 14.7832 89.7204 14.2443 92.0608 14.7062C92.4541 14.7832 92.8671 14.8987 93.2015 15.1105C93.5751 15.3415 93.8701 15.3415 94.2831 15.1875C95.9745 14.61 97.7249 14.302 99.5146 14.687C101.58 15.1105 102.976 16.5926 103.055 18.633C103.153 21.1161 103.094 23.6185 103.114 26.1208C103.114 26.3325 103.015 26.371 102.838 26.371C102.071 26.371 101.304 26.3518 100.518 26.371C100.164 26.3903 100.242 26.1785 100.242 25.9861C100.242 23.7724 100.242 21.5588 100.242 19.326C100.242 19.018 100.223 18.71 100.144 18.402C99.9472 17.5936 99.4359 17.1508 98.5312 17.0161C97.4299 16.8621 96.3088 16.9776 95.1682 17.2278Z" fill="white"/>
<path d="M175.803 14.9374C174.171 16.5351 172.558 18.0942 170.965 19.6726C170.69 19.9421 170.591 19.6919 170.454 19.5764C167.74 16.9393 165.045 14.2829 162.351 11.6459C161.859 11.1646 161.348 10.6642 160.836 10.2022C160.266 9.68247 159.597 9.31674 158.771 9.27825C158.319 9.259 157.906 9.41299 157.473 9.66322C157.493 8.81627 157.375 8.02707 157.611 7.25712C157.945 6.10219 158.909 5.58247 160.089 5.89045C160.463 5.9867 160.817 6.15994 161.151 6.37167C165.93 9.182 170.729 11.9731 175.508 14.7834C175.606 14.8027 175.685 14.8604 175.803 14.9374Z" fill="white"/>
<path d="M175.882 26.1783C174.348 27.083 172.912 27.9107 171.457 28.7576C168.054 30.7403 164.672 32.7421 161.269 34.7248C160.915 34.9365 160.561 35.1097 160.168 35.2252C158.909 35.591 157.906 35.0135 157.592 33.7623C157.415 33.0309 157.513 32.2802 157.474 31.4717C158.713 32.2032 159.755 31.7989 160.719 31.0482C160.974 30.8365 161.21 30.6248 161.446 30.3938C164.455 27.4487 167.464 24.5229 170.454 21.5778C170.71 21.3276 170.847 21.3276 171.103 21.5778C172.558 23.0215 174.033 24.4651 175.508 25.8896C175.587 26.005 175.725 26.0628 175.882 26.1783Z" fill="white"/>
<path d="M62.3449 18.9793C62.9939 18.2864 63.5446 17.7089 64.0952 17.1314C64.7639 16.4192 65.4326 15.707 66.1013 14.9756C66.2783 14.7831 66.4553 14.7061 66.711 14.7253C67.832 14.7446 68.9333 14.7253 70.133 14.7253C69.956 14.8986 69.838 15.0333 69.72 15.1681C68.2253 16.6695 66.7306 18.1709 65.2359 19.653C65.0393 19.8455 64.9999 19.961 65.2163 20.192C66.9666 22.1554 68.6973 24.1188 70.4477 26.0822C70.5067 26.1591 70.5854 26.2361 70.7034 26.3709C69.484 26.3709 68.363 26.3709 67.2223 26.3709C67.0256 26.3709 66.9666 26.2169 66.8683 26.1014C65.7276 24.7732 64.5673 23.4451 63.4462 22.0976C63.2299 21.8474 63.1316 21.7897 62.8562 22.0591C62.4826 22.4056 62.3449 22.7714 62.3645 23.2718C62.4039 24.1958 62.3646 25.1197 62.3842 26.0437C62.3842 26.2939 62.3252 26.3901 62.0499 26.3709C61.3615 26.3516 60.6732 26.3516 59.9652 26.3709C59.6112 26.3901 59.4932 26.2939 59.4932 25.9282C59.5128 21.039 59.4932 16.169 59.4932 11.2798C59.4932 10.3559 59.4932 10.3559 60.4372 10.3559C60.9485 10.3559 61.4402 10.3751 61.9515 10.3559C62.2859 10.3366 62.3645 10.4329 62.3645 10.7601C62.3449 13.3009 62.3645 15.8418 62.3645 18.3826C62.3449 18.5174 62.3449 18.6714 62.3449 18.9793Z" fill="white"/>
<path d="M130.55 18.7292C130.491 19.8648 130.668 21.2123 130.412 22.5597C129.979 24.8503 128.308 26.3324 125.908 26.5249C125.023 26.6019 124.138 26.5634 123.293 26.3132C121.228 25.7165 119.93 24.0418 119.851 21.6935C119.772 19.4606 119.831 17.2277 119.812 14.9949C119.812 14.7639 119.89 14.7061 120.107 14.7061C120.834 14.7254 121.562 14.7254 122.27 14.7061C122.604 14.6869 122.683 14.8024 122.683 15.1104C122.663 17.1892 122.683 19.2681 122.683 21.347C122.683 21.7897 122.722 22.2324 122.84 22.6752C123.037 23.3489 123.489 23.7723 124.197 23.9456C124.787 24.0803 125.377 24.0996 125.967 23.9841C127.049 23.7723 127.6 23.1371 127.639 21.9052C127.678 20.4808 127.659 19.0756 127.659 17.6512C127.659 16.785 127.678 15.9188 127.659 15.0719C127.659 14.8024 127.718 14.7061 128.013 14.7061C128.74 14.7254 129.468 14.7254 130.176 14.7061C130.491 14.7061 130.53 14.8024 130.53 15.0719C130.55 16.2268 130.55 17.3625 130.55 18.7292Z" fill="white"/>
<path d="M183.356 20.6538C183.297 21.52 182.726 22.1552 181.94 22.6172C180.76 23.3294 179.56 24.0031 178.38 24.6961C177.928 24.9655 177.456 25.2158 177.003 25.5045C176.807 25.62 176.669 25.6585 176.492 25.466C174.919 23.9069 173.325 22.3477 171.732 20.7885C171.536 20.6153 171.536 20.4998 171.732 20.3073C173.325 18.7674 174.919 17.2083 176.492 15.6299C176.669 15.4374 176.807 15.4566 177.003 15.5914C178.636 16.5538 180.268 17.497 181.9 18.4594C182.844 19.0562 183.356 19.7876 183.356 20.6538Z" fill="white"/>
<path d="M140.894 17.4974C139.714 17.0162 138.534 16.843 137.334 16.997C137.275 16.997 137.216 17.0162 137.138 17.0162C136.508 17.1317 136.115 17.4397 136.095 17.8632C136.076 18.4021 136.489 18.6331 136.941 18.7871C137.728 19.0566 138.534 19.2683 139.301 19.5571C141.091 20.2308 141.936 21.5975 141.759 23.5031C141.622 24.9083 140.402 26.1017 138.691 26.4097C137.02 26.7176 135.407 26.4867 133.873 25.7552C133.617 25.6397 133.538 25.4857 133.538 25.2162C133.558 24.5233 133.538 23.8496 133.538 23.0989C134.364 23.5993 135.19 23.9458 136.095 24.0613C136.764 24.1383 137.413 24.1575 138.062 24.0228C138.514 23.9266 138.79 23.6763 138.868 23.2336C138.947 22.7909 138.75 22.4636 138.357 22.2327C137.885 21.9632 137.354 21.7899 136.843 21.6359C136.292 21.4627 135.741 21.2895 135.19 21.0777C134.089 20.6158 133.361 19.8266 133.224 18.6331C133.086 17.3627 133.381 16.227 134.502 15.4571C136.213 14.2829 138.062 14.3214 139.95 14.9566C140.874 15.2646 140.855 15.2838 140.855 16.2463C140.894 16.6505 140.894 17.0547 140.894 17.4974Z" fill="white"/>
<path d="M37.7607 21.0005C37.7607 19.3451 37.7607 17.7089 37.7607 16.0535C37.7607 15.7455 37.8394 15.5916 38.1344 15.4568C40.1404 14.6291 42.2251 14.2249 44.3885 14.6869C46.2569 15.0718 47.4369 16.4 47.4959 18.2671C47.5745 20.885 47.5155 23.5028 47.5352 26.1207C47.5352 26.3324 47.4565 26.3902 47.2599 26.3709C46.7879 26.3517 46.2175 26.5056 45.8832 26.2939C45.6078 26.1014 45.8045 25.4855 45.8045 25.062C45.8045 23.0409 45.8045 21.039 45.8045 19.0178C45.8045 18.6521 45.7848 18.2864 45.6865 17.9207C45.4112 16.939 44.6835 16.4385 43.6805 16.2845C42.3431 16.092 41.0451 16.2845 39.7667 16.5925C39.4521 16.6695 39.4914 16.862 39.4914 17.0737C39.4914 20.0188 39.4717 22.9446 39.5111 25.8897C39.5111 26.3132 39.3931 26.4094 38.9997 26.3709C38.6064 26.3324 38.0951 26.4864 37.859 26.2939C37.6034 26.0629 37.7804 25.5432 37.7804 25.1582C37.7607 23.7723 37.7607 22.3864 37.7607 21.0005Z" fill="white"/>
<path d="M22.7548 14.7253C22.2041 16.1112 21.6927 17.4201 21.1814 18.7291C20.2374 21.1544 19.2737 23.5605 18.3494 25.9859C18.2314 26.2746 18.0937 26.3901 17.779 26.3708C17.3463 26.3323 16.7957 26.5248 16.5007 26.2938C16.2056 26.0629 16.1466 25.5431 15.9893 25.1389C14.6323 21.7511 13.3146 18.3441 11.9772 14.9563C11.9576 14.8985 11.9379 14.8408 11.8789 14.7253C12.4689 14.7253 12.9999 14.7253 13.5309 14.7253C13.8063 14.7253 13.7866 14.9563 13.8456 15.1103C14.9666 18.0553 16.068 21.0004 17.189 23.9647C17.2087 24.0417 17.2087 24.1187 17.3463 24.1572C17.956 22.5211 18.5657 20.9042 19.195 19.268C19.726 17.8629 20.2571 16.4577 20.7881 15.0333C20.8667 14.8023 20.9847 14.7061 21.2601 14.7061C21.7321 14.7446 22.2041 14.7253 22.7548 14.7253Z" fill="white"/>
<path d="M56.5029 24.6966C56.5029 25.1778 56.4832 25.5821 56.5029 26.0055C56.5226 26.2365 56.4046 26.3135 56.1882 26.3713C55.0672 26.6792 53.9659 26.6022 52.9629 26.0248C52.1958 25.5821 51.8812 24.8506 51.7632 24.0421C51.7042 23.6572 51.7042 23.2722 51.7042 22.8872C51.7042 20.7891 51.7042 18.7102 51.7042 16.6121C51.7042 16.3234 51.6452 16.2464 51.3502 16.2464C50.8782 16.2656 50.4062 16.2464 49.9341 16.2656C49.7178 16.2656 49.6391 16.2079 49.6391 15.9769C49.5801 14.7065 49.5801 14.7065 50.8585 14.7065C51.7042 14.7065 51.7042 14.7065 51.7042 13.8595C51.7042 13.1666 51.7238 12.4736 51.7042 11.7806C51.7042 11.5112 51.7435 11.3764 52.0582 11.4149C52.5105 11.4534 53.1005 11.2417 53.3759 11.4919C53.6315 11.7229 53.4349 12.3004 53.4545 12.7238C53.4742 13.2821 53.4742 13.8403 53.4545 14.3792C53.4545 14.6295 53.5135 14.6872 53.7692 14.6872C54.5559 14.668 55.3426 14.6872 56.1292 14.668C56.4046 14.668 56.5816 14.7065 56.5226 15.0337C56.4832 15.4187 56.6799 15.8999 56.4439 16.1501C56.2079 16.3811 55.6966 16.2079 55.3032 16.2271C54.7919 16.2464 54.3002 16.2464 53.7889 16.2271C53.5332 16.2271 53.4349 16.2656 53.4349 16.5351C53.4545 18.8257 53.4349 21.1163 53.4545 23.4069C53.4545 24.4656 53.9069 24.8698 54.9886 24.9083C55.4999 24.9853 55.9719 24.8698 56.5029 24.6966Z" fill="white"/>
<path d="M116.605 18.2671C116.133 16.5347 115.111 15.2836 113.321 14.8023C111.748 14.3596 110.154 14.4366 108.679 15.1488C107.381 15.7648 106.634 16.862 106.614 18.2864C106.575 22.3094 106.595 26.3516 106.595 30.3746C106.595 30.6441 106.693 30.7019 106.949 30.7019C107.617 30.6826 108.306 30.6826 108.974 30.7019C109.348 30.7211 109.486 30.6249 109.466 30.2399C109.427 28.9887 109.446 27.7183 109.446 26.4286C110.253 26.5826 111.04 26.6596 111.826 26.6211C114.363 26.5056 116.094 25.1582 116.664 22.8099C117.038 21.2892 116.999 19.7685 116.605 18.2671ZM113.773 22.8099C113.478 23.83 112.672 24.292 111.63 24.4075C110.981 24.4653 110.351 24.3883 109.702 24.3305C109.446 24.3113 109.446 24.1765 109.446 23.984C109.446 23.0216 109.446 22.0399 109.446 21.0775C109.446 20.1535 109.446 19.2296 109.446 18.3056C109.446 17.6897 109.702 17.3239 110.312 17.1314C110.961 16.9197 111.649 16.9005 112.318 17.0352C113.006 17.1699 113.478 17.6127 113.675 18.2479C114.147 19.7685 114.206 21.2892 113.773 22.8099Z" fill="white"/>
<path d="M82.0503 18.6521C81.9126 16.708 80.7523 15.3028 78.9232 14.8023C77.0745 14.3019 75.2455 14.4943 73.4361 15.0333C73.2591 15.0911 73.1805 15.1488 73.1805 15.3413C73.2001 16.015 73.1805 16.6887 73.1805 17.3624C73.3968 17.4009 73.5345 17.2854 73.7115 17.2469C74.9308 16.9005 76.1699 16.7272 77.4286 16.9005C78.4512 17.0544 78.9822 17.5934 79.1592 18.5751C79.2183 18.9408 79.1986 19.0563 78.7659 18.9986C77.6252 18.8253 76.4845 18.8061 75.3438 19.0371C74.2032 19.2681 73.1411 19.6723 72.4921 20.731C71.2334 22.8098 72.2758 25.4662 74.6948 26.1976C76.2289 26.6789 77.8022 26.6789 79.3363 26.2169C80.8899 25.7549 81.9913 24.446 82.0503 22.9638C82.129 21.5394 82.1683 20.0958 82.0503 18.6521ZM76.5435 24.0418C75.5405 23.9263 74.9505 23.3873 74.8718 22.4826C74.7932 21.6742 75.1275 21.1737 75.9339 20.9042C76.6615 20.6732 77.4089 20.6732 78.1759 20.731C79.2576 20.7887 79.2576 20.808 79.2576 21.8474C79.2379 23.6375 78.4709 24.2535 76.5435 24.0418Z" fill="white"/>
<path d="M10.4037 18.9797C9.99067 17.0356 9.16466 15.3994 7.04062 14.745C6.2736 14.514 5.50659 14.4755 4.70024 14.514C2.43854 14.668 0.963512 15.8614 0.412835 18.0173C0.0391622 19.5187 -0.000171784 21.0201 0.294833 22.5215C0.747175 24.9083 2.06486 26.1403 4.50357 26.4675C5.9786 26.6792 7.45363 26.5445 8.88932 26.0825C9.794 25.7938 9.794 25.7938 9.794 24.9083C9.794 24.6389 9.794 24.3501 9.794 24.0036C8.35831 24.7543 6.86362 24.8891 5.34926 24.8506C3.34322 24.7928 2.2222 23.8112 1.9272 21.9633C1.86819 21.559 1.9862 21.5206 2.3402 21.5206C4.93625 21.5398 7.53229 21.5205 10.1283 21.5398C10.4627 21.5398 10.5413 21.4628 10.561 21.1356C10.561 20.4234 10.5413 19.6919 10.4037 18.9797ZM7.98463 20.0384C7.09962 20.0384 6.23427 20.0384 5.34926 20.0384C4.3069 20.0384 3.28422 20.0191 2.24187 20.0384C1.9272 20.0384 1.84853 19.9614 1.88786 19.6534C1.9862 18.9412 2.08453 18.2483 2.3992 17.613C2.65487 17.0741 3.02855 16.6698 3.59889 16.4389C4.62158 16.0346 5.68359 15.9769 6.72595 16.3619C8.04364 16.8431 8.45664 17.9595 8.73198 19.1722C8.90899 20.0384 8.88932 20.0384 7.98463 20.0384Z" fill="white"/>
<path d="M34.6725 18.9793C34.2595 17.0159 33.4138 15.3605 31.2701 14.7253C30.5031 14.4943 29.7164 14.4558 28.9297 14.5136C26.668 14.6868 25.2126 15.8995 24.6816 18.0554C24.2883 19.5953 24.2883 21.1737 24.603 22.7328C24.9766 24.5807 26.078 25.8319 27.9464 26.2939C29.9131 26.7943 31.8798 26.5634 33.7678 25.8704C33.9645 25.7934 34.0628 25.6972 34.0628 25.4662C34.0431 25.0042 34.0628 24.5422 34.0628 24.0033C32.6271 24.754 31.1324 24.8887 29.6181 24.8502C27.612 24.7925 26.4713 23.8108 26.196 21.9629C26.137 21.5779 26.2353 21.5202 26.609 21.5202C29.205 21.5394 31.8011 21.5202 34.3971 21.5394C34.7118 21.5394 34.8298 21.4624 34.8298 21.1352C34.8101 20.423 34.8101 19.6915 34.6725 18.9793ZM32.7058 20.0573C31.6634 20.038 30.6407 20.0573 29.5984 20.0573C28.556 20.0573 27.5334 20.0573 26.491 20.0573C26.2157 20.0573 26.0977 20.0188 26.137 19.7108C26.2353 18.9986 26.3337 18.2864 26.6483 17.6126C26.9237 17.0352 27.3367 16.6117 27.9464 16.4C28.91 16.0342 29.9131 15.9765 30.8964 16.323C31.7224 16.6117 32.3124 17.1507 32.6271 17.9784C32.8434 18.5173 33.0008 19.0756 33.0794 19.6723C33.0991 19.9418 33.0401 20.0573 32.7058 20.0573Z" fill="white"/>
</g>
<defs>
<clipPath id="clip0">
<rect width="189" height="41" fill="white"/>
</clipPath>
</defs>
</svg>
