<?xml version="1.0" encoding="utf-8"?>
<!-- Generator: Adobe Illustrator 21.0.0, SVG Export Plug-In . SVG Version: 6.00 Build 0)  -->
<svg version="1.1" id="Layer_1" xmlns="http://www.w3.org/2000/svg" xmlns:xlink="http://www.w3.org/1999/xlink" x="0px" y="0px"
	 viewBox="0 0 206.3 35.9" style="enable-background:new 0 0 206.3 35.9;" xml:space="preserve">
<style type="text/css">
	.st0{fill:#FFFFFF;}
</style>
<g>
	<g>
		<g>
			<path class="st0" d="M79,24.8l2.6,2.3c-3.1,2.9-6.5,4.3-10,4.3c-3.8,0-7-1.3-9.6-4c-2.6-2.6-4-5.8-4-9.6c0-3.7,1.3-6.9,4-9.6
				c2.6-2.7,5.8-4,9.6-4c3.5,0,6.8,1.4,10,4.3L79,10.9c-2.4-2.1-4.8-3.2-7.4-3.2c-2.8,0-5.2,1-7.1,3c-2,2-3,4.4-3,7.1
				c0,2.8,1,5.2,3,7.2s4.4,3,7.1,3C74.1,28,76.6,26.9,79,24.8z"/>
			<path class="st0" d="M86.6,4.6v26.6h-3.5V4.6H86.6z"/>
			<path class="st0" d="M97.5,12.7c2.6,0,4.8,0.9,6.7,2.8c1.8,1.9,2.8,4.1,2.8,6.7s-0.9,4.8-2.8,6.7c-1.8,1.9-4.1,2.8-6.7,2.8
				s-4.8-0.9-6.7-2.8C88.9,27,88,24.8,88,22.2s0.9-4.8,2.8-6.7C92.6,13.6,94.9,12.7,97.5,12.7z M93.3,18c-1.2,1.2-1.7,2.6-1.7,4.2
				c0,1.6,0.6,3,1.7,4.2c1.2,1.2,2.6,1.7,4.2,1.7s3-0.6,4.2-1.7c1.2-1.2,1.7-2.5,1.7-4.2c0-1.6-0.6-3-1.7-4.2
				c-1.2-1.2-2.6-1.7-4.2-1.7C95.8,16.2,94.4,16.8,93.3,18z"/>
			<path class="st0" d="M115.6,31.4c-2.2,0-3.9-0.7-5.2-2s-2-3-2-5V14.1h3.5v10.3c0,1,0.4,1.8,1.1,2.5s1.6,1.1,2.7,1.1
				c1,0,1.8-0.4,2.6-1.1c0.7-0.7,1.1-1.6,1.1-2.6V14.1h3.4v10.4c0,2-0.7,3.6-2,5C119.4,30.7,117.7,31.4,115.6,31.4z"/>
			<path class="st0" d="M140,15.3V4.6h3.5v26.6H140v-2.1c-1.7,1.7-3.6,2.6-5.8,2.6c-2.6,0-4.8-0.9-6.7-2.8c-1.8-1.9-2.8-4.1-2.8-6.7
				s0.9-4.8,2.8-6.7c1.8-1.9,4.1-2.8,6.7-2.8C136.4,12.7,138.3,13.5,140,15.3z M140,23.4v-2.5c-0.2-1.1-0.7-2-1.6-2.9
				c-1.2-1.2-2.5-1.7-4.2-1.7c-1.6,0-3,0.6-4.2,1.7c-1.2,1.2-1.7,2.6-1.7,4.2c0,1.6,0.6,3,1.7,4.2c1.2,1.2,2.6,1.7,4.2,1.7
				c1.6,0,3-0.6,4.2-1.7C139.2,25.5,139.8,24.5,140,23.4z"/>
			<path class="st0" d="M149.3,20.2v11h-3.4V4.6h3.4v12.1h8.2V4.6h3.4v26.6h-3.4v-11H149.3z"/>
			<path class="st0" d="M171.8,12.7c2.6,0,4.8,0.9,6.7,2.8c1.8,1.9,2.8,4.1,2.8,6.7s-0.9,4.8-2.8,6.7c-1.8,1.9-4.1,2.8-6.7,2.8
				c-2.6,0-4.8-0.9-6.7-2.8s-2.8-4.1-2.8-6.7s0.9-4.8,2.8-6.7C167,13.6,169.2,12.7,171.8,12.7z M167.6,18c-1.2,1.2-1.7,2.6-1.7,4.2
				c0,1.6,0.6,3,1.7,4.2c1.2,1.2,2.6,1.7,4.2,1.7c1.6,0,3-0.6,4.2-1.7c1.2-1.2,1.7-2.5,1.7-4.2c0-1.6-0.6-3-1.7-4.2
				c-1.2-1.2-2.6-1.7-4.2-1.7C170.2,16.2,168.8,16.8,167.6,18z"/>
			<path class="st0" d="M184,27.3c1,0.6,2.8,1.2,4.3,1.2c1.8,0,2.7-0.7,2.7-1.8c0-1.1-0.7-1.7-2.7-2.4c-3.2-1.1-4.6-2.9-4.6-4.8
				c0-2.9,2.4-5.2,6.3-5.2c1.8,0,3.4,0.5,4.4,1l-0.8,3c-0.7-0.4-2-1-3.5-1s-2.3,0.7-2.3,1.7c0,1.1,0.8,1.6,2.9,2.3
				c3,1.1,4.4,2.6,4.4,5.1c0,3-2.3,5.2-6.7,5.2c-2,0-3.8-0.5-5-1.2L184,27.3z"/>
			<path class="st0" d="M202.3,9.9v4.7h4v3.1h-4V25c0,2,0.5,3.1,2.1,3.1c0.7,0,1.3-0.1,1.6-0.2l0.1,3.2c-0.6,0.2-1.7,0.4-3,0.4
				c-1.5,0-2.8-0.5-3.6-1.4c-0.9-1-1.3-2.4-1.3-4.6v-7.8h-2.4v-3.1h2.4v-3.7L202.3,9.9z"/>
		</g>
	</g>
	<g>
		<path class="st0" d="M47.3,14.8c-2.8-1.2-4.2-2.9-5.5-5.5C36.3-1.4,22.1-3.2,14.2,5.8c-1.8,2.1-3.6,3.4-6.1,4.4
			c-6.1,2.4-9,8.2-7.9,15.1c1,5.8,6,10.2,12.3,10.5c4.9,0.1,9.9,0,14.9,0c5.2,0,10.3,0.1,15.4-0.1c5.5-0.1,9.5-3.4,10.7-8.6
			C54.7,22.2,52.3,16.9,47.3,14.8z M20.6,28.6h-2.2V11.9h2.2V28.6z M34.9,28.6h-2.2v-1.3c-1,1.1-2.3,1.6-3.6,1.6
			c-1.6,0-3-0.6-4.2-1.7c-1.2-1.1-1.7-2.6-1.7-4.2c0-1.6,0.6-3.1,1.7-4.2c1.2-1.2,2.6-1.7,4.2-1.7c1.4-0.1,2.6,0.5,3.6,1.5v-6.7h2.2
			V28.6z"/>
		<path class="st0" d="M29.1,19.3c-1,0-1.9,0.4-2.6,1.1S25.4,22,25.4,23s0.4,1.9,1.1,2.6s1.6,1.1,2.6,1.1s1.9-0.4,2.6-1.1
			c0.6-0.5,0.9-1.1,1-1.8v-1.6c-0.1-0.7-0.5-1.3-1-1.8C31,19.7,30.1,19.3,29.1,19.3z"/>
	</g>
</g>
</svg>
