<svg width="189" height="41" viewBox="0 0 189 41" fill="none" xmlns="http://www.w3.org/2000/svg">
<path d="M72.3915 28.3562L74.7732 30.9892C71.9335 34.309 68.8191 35.9117 65.613 35.9117C62.1322 35.9117 59.201 34.4235 56.8193 31.3326C54.4377 28.3562 53.1553 24.6929 53.1553 20.3428C53.1553 16.1072 54.3461 12.4439 56.8193 9.35301C59.201 6.26213 62.1322 4.77393 65.613 4.77393C68.8191 4.77393 71.8419 6.3766 74.7732 9.69644L72.3915 12.4439C70.1931 10.0399 67.9947 8.78062 65.613 8.78062C63.0482 8.78062 60.8498 9.92539 59.1094 12.2149C57.2773 14.5045 56.3613 17.2519 56.3613 20.3428C56.3613 23.5482 57.2773 26.2956 59.1094 28.5851C60.9414 30.8747 63.1398 32.0195 65.613 32.0195C67.9031 32.0195 70.1931 30.7602 72.3915 28.3562Z" fill="white"/>
<path d="M79.3535 5.23193V35.6828H76.1475V5.23193H79.3535Z" fill="white"/>
<path d="M89.3379 14.5049C91.7195 14.5049 93.7347 15.5352 95.4751 17.7102C97.124 19.8853 98.04 22.4038 98.04 25.3802C98.04 28.3566 97.2156 30.8751 95.4751 33.0502C93.8263 35.2252 91.7195 36.2555 89.3379 36.2555C86.9562 36.2555 84.941 35.2252 83.2006 33.0502C81.4602 30.8751 80.6357 28.3566 80.6357 25.3802C80.6357 22.4038 81.4602 19.8853 83.2006 17.7102C84.8494 15.5352 86.9562 14.5049 89.3379 14.5049ZM85.4906 20.5722C84.3914 21.9459 83.9334 23.5486 83.9334 25.3802C83.9334 27.2118 84.483 28.8145 85.4906 30.1882C86.5898 31.562 87.8722 32.1343 89.3379 32.1343C90.8035 32.1343 92.0859 31.4475 93.1851 30.1882C94.2843 28.8145 94.7423 27.3263 94.7423 25.3802C94.7423 23.5486 94.1927 21.9459 93.1851 20.5722C92.0859 19.1984 90.8035 18.6261 89.3379 18.6261C87.7806 18.5116 86.4982 19.1984 85.4906 20.5722Z" fill="white"/>
<path d="M105.919 35.9119C103.903 35.9119 102.346 35.1106 101.155 33.6224C99.9645 32.1342 99.3232 30.1881 99.3232 27.8986V16.1074H102.529V27.8986C102.529 29.0433 102.896 29.9591 103.537 30.7605C104.178 31.5618 105.003 32.0197 106.01 32.0197C106.926 32.0197 107.659 31.5618 108.392 30.7605C109.033 29.9591 109.399 28.9288 109.399 27.7841V16.1074H112.514V28.013C112.514 30.3026 111.873 32.1342 110.682 33.7369C109.399 35.1106 107.842 35.9119 105.919 35.9119Z" fill="white"/>
<path d="M128.269 17.481V5.23193H131.475V35.6828H128.269V33.2788C126.712 35.2249 124.971 36.2552 122.956 36.2552C120.574 36.2552 118.559 35.2249 116.819 33.0499C115.17 30.8748 114.254 28.3563 114.254 25.3799C114.254 22.4035 115.078 19.885 116.819 17.7099C118.468 15.5349 120.574 14.5046 122.956 14.5046C124.971 14.5046 126.712 15.4204 128.269 17.481ZM128.269 26.7536V23.8917C128.086 22.6324 127.628 21.6021 126.803 20.5719C125.704 19.1981 124.513 18.6257 122.956 18.6257C121.49 18.6257 120.208 19.3126 119.109 20.5719C118.01 21.9456 117.552 23.5483 117.552 25.3799C117.552 27.2115 118.101 28.8142 119.109 30.1879C120.208 31.5616 121.49 32.134 122.956 32.134C124.422 32.134 125.704 31.4472 126.803 30.1879C127.536 29.1576 128.086 28.0129 128.269 26.7536Z" fill="white"/>
<path d="M136.788 23.0903V35.6828H133.674V5.23193H136.788V19.0837H144.3V5.23193H147.414V35.6828H144.3V23.0903H136.788V23.0903Z" fill="white"/>
<path d="M157.397 14.5049C159.779 14.5049 161.794 15.5352 163.535 17.7102C165.184 19.8853 166.1 22.4038 166.1 25.3802C166.1 28.3566 165.275 30.8751 163.535 33.0502C161.886 35.2252 159.779 36.2555 157.397 36.2555C155.016 36.2555 153.001 35.2252 151.26 33.0502C149.52 30.8751 148.695 28.3566 148.695 25.3802C148.695 22.4038 149.52 19.8853 151.26 17.7102C153.001 15.5352 155.016 14.5049 157.397 14.5049ZM153.55 20.5722C152.451 21.9459 151.993 23.5486 151.993 25.3802C151.993 27.2118 152.543 28.8145 153.55 30.1882C154.649 31.562 155.932 32.1343 157.397 32.1343C158.863 32.1343 160.145 31.4475 161.245 30.1882C162.344 28.8145 162.802 27.3263 162.802 25.3802C162.802 23.5486 162.252 21.9459 161.245 20.5722C160.145 19.1984 158.863 18.6261 157.397 18.6261C155.932 18.5116 154.649 19.1984 153.55 20.5722Z" fill="white"/>
<path d="M168.574 31.2184C169.49 31.9053 171.139 32.5922 172.513 32.5922C174.162 32.5922 174.986 31.7908 174.986 30.5316C174.986 29.2723 174.345 28.5855 172.513 27.7841C169.582 26.5249 168.299 24.4643 168.299 22.2892C168.299 18.9694 170.498 16.3364 174.07 16.3364C175.719 16.3364 177.185 16.9088 178.101 17.4812L177.368 20.9155C176.727 20.4576 175.536 19.7707 174.162 19.7707C172.788 19.7707 172.055 20.5721 172.055 21.7168C172.055 22.9761 172.788 23.5485 174.711 24.3498C177.459 25.6091 178.742 27.3262 178.742 30.1881C178.742 33.6225 176.635 36.1409 172.604 36.1409C170.772 36.1409 169.124 35.5686 168.024 34.7672L168.574 31.2184Z" fill="white"/>
<path d="M185.336 11.2998V16.6802H189V20.229H185.336V28.5858C185.336 30.8754 185.794 32.1346 187.26 32.1346C187.901 32.1346 188.45 32.0201 188.725 31.9057L188.817 35.5689C188.267 35.7979 187.26 36.0268 186.069 36.0268C184.695 36.0268 183.504 35.4545 182.771 34.4242C181.947 33.2794 181.58 31.6767 181.58 29.1582V20.229H179.382V16.6802H181.58V12.4446L185.336 11.2998Z" fill="white"/>
<path d="M43.354 16.9089C40.7891 15.5352 39.5067 13.5891 38.3159 10.6127C33.2778 -1.63633 20.2704 -3.69692 13.0339 6.60602C11.3851 9.01003 9.7363 10.4982 7.44627 11.643C1.85859 14.3905 -0.797848 21.0301 0.209766 28.929C1.12578 35.5687 5.70584 40.6057 11.4767 40.9491C15.9652 41.0636 20.5452 40.9491 25.1253 40.9491C29.8886 40.9491 34.5602 41.0636 39.2319 40.8346C44.27 40.7202 47.934 36.9424 49.0332 30.9896C50.1325 25.3802 47.934 19.313 43.354 16.9089ZM18.8964 32.7068H16.8812V13.5891H18.8964V32.7068ZM31.9954 32.7068H29.9802V31.2186C29.0642 32.4778 27.8734 33.0502 26.6825 33.0502C25.2169 33.0502 23.9345 32.3633 22.8353 31.1041C21.7361 29.8448 21.2781 28.1277 21.2781 26.2961C21.2781 24.4644 21.8277 22.7473 22.8353 21.488C23.9345 20.1143 25.2169 19.5419 26.6825 19.5419C27.965 19.4274 29.0642 20.1143 29.9802 21.2591V13.5891H31.9954V32.7068Z" fill="white"/>
<path d="M26.6822 22.0605C25.7662 22.0605 24.9418 22.5185 24.3006 23.3198C23.6594 24.1211 23.293 25.1514 23.293 26.2962C23.293 27.441 23.6594 28.4713 24.3006 29.2726C24.9418 30.0739 25.7662 30.5318 26.6822 30.5318C27.5982 30.5318 28.4226 30.0739 29.0639 29.2726C29.6135 28.7002 29.8883 28.0134 29.9799 27.212V25.3804C29.8883 24.579 29.5219 23.8922 29.0639 23.3198C28.4226 22.5185 27.5982 22.0605 26.6822 22.0605Z" fill="white"/>
</svg>
