<svg width="172" height="46" viewBox="0 0 172 46" fill="none" xmlns="http://www.w3.org/2000/svg">
<g clip-path="url(#clip0)">
<path d="M62.9018 10.2294H53.1475C53.1475 10.2294 55.8368 8.76895 55.8368 7.26993C55.8368 5.01818 43.0741 0 43.0741 0C43.0741 0 30.0835 4.76084 30.0835 7.14126C30.0835 9.56028 32.1346 10.2937 32.1346 10.2937H23.7021C26.2091 11.3874 25.2975 12.6741 25.2975 12.6741C25.2975 12.6741 24.3858 13.7678 25.9812 14.4112C27.5765 15.0545 33.0462 14.8615 33.0462 14.8615L26.6649 34.9986H0C1.13953 35.7063 0.683715 37.186 0.683715 37.186C0.683715 37.186 0 39.0517 2.96277 39.5021C13.7427 41.1427 20.9673 43.9413 22.1068 45.228C22.8361 46.0386 25.7533 46 25.7533 46H59.2553V44.4559L28.0323 44.3916C23.4742 40.7888 7.52087 38.1511 7.52087 38.1511L7.74877 36.607H31.4509L39.1997 13.2531H32.1346V11.9021H42.869C32.1346 8.87189 34.0034 6.27916 42.869 2.94014C42.869 2.94014 50.5038 5.41706 50.5038 7.42434C50.5038 10.3001 42.869 11.9085 42.869 11.9085H54.4693L54.3326 13.2724H47.0396L47.7233 14.7522C47.7233 14.7522 52.5093 14.7522 56.8395 14.7522C61.1697 14.7522 61.3065 13.6392 60.8507 12.3524C60.3949 11.0657 62.9018 10.2294 62.9018 10.2294Z" fill="white"/>
<path d="M109.44 17.5894V19.468H120.22V28.1854H128.812V19.468H139.569V17.5894H109.44Z" fill="white"/>
<path d="M57.7578 41.8013L57.7578 31.0122H49.1202L49.1202 41.8013H57.7578Z" fill="white"/>
<path d="M68.1719 24.7432V17.6084H59.1696L59.1696 24.7432H68.1719Z" fill="white"/>
<path d="M152.491 30.875C141.711 30.875 132.982 33.339 132.982 36.3821C132.982 39.4252 141.711 41.8892 152.491 41.8892C163.271 41.8892 172 39.4252 172 36.3821C172 33.339 163.248 30.875 152.491 30.875ZM152.491 39.9077C146.497 39.9077 141.643 38.3315 141.643 36.3821C141.643 34.4327 146.497 32.8565 152.491 32.8565C158.485 32.8565 163.339 34.4327 163.339 36.3821C163.339 38.3315 158.462 39.9077 152.491 39.9077Z" fill="white"/>
<path d="M90.6839 31.0225V37.7842C90.6839 37.7907 90.6611 37.7907 90.6611 37.7842L73.7733 31.3056C73.2947 31.1255 72.5426 31.0161 71.745 31.0161H65.2953C65.2953 31.0161 65.2725 31.0161 65.2725 31.0225V41.7988C65.2725 41.7988 65.2725 41.8052 65.2953 41.8052H72.9984C72.9984 41.8052 73.0212 41.8052 73.0212 41.7988V35.1272C73.0212 35.1207 73.044 35.1207 73.044 35.1272L89.9318 41.5222C90.4104 41.7023 91.1397 41.8052 91.9374 41.8052H98.4099C98.4099 41.8052 98.4327 41.8052 98.4327 41.7988V31.0225C98.4327 31.0225 98.4327 31.0161 98.4099 31.0161L90.6839 31.0225C90.6839 31.0161 90.7067 31.0161 90.6839 31.0225Z" fill="white"/>
<path d="M130.362 32.9398V31.0161H114.569H105.566V41.8052H114.569V37.5784H127.582V35.6547H114.569V32.9398H130.362Z" fill="white"/>
<path d="M98.4316 28.1852H108.687L95.7195 22.5687L107.548 17.6084H97.2921L87.9252 21.4235C87.4922 21.5972 86.7856 21.7001 86.0336 21.7001H83.8685V17.6084H74.8662V28.1916H83.8685V23.8876H86.6261C87.6061 23.8876 88.5177 24.0227 89.0647 24.2543L98.4316 28.1852Z" fill="white"/>
<path d="M52.5776 28.5904C51.2785 28.5904 49.8655 28.5711 48.3613 28.5325L49.0906 26.2229C55.6999 26.3902 57.7055 26.0749 58.2524 25.9334C58.6854 25.8176 59.1868 25.5795 59.1868 24.7432H68.1891C68.1891 25.6632 66.9812 26.8212 63.7905 27.6447C61.3064 28.2816 57.751 28.5904 52.5776 28.5904Z" fill="white"/>
</g>
<defs>
<clipPath id="clip0">
<rect width="172" height="46" fill="white"/>
</clipPath>
</defs>
</svg>
