<svg width="180" height="87" viewBox="0 0 180 87" fill="none" xmlns="http://www.w3.org/2000/svg">
<path d="M95.1586 45.9678C96.0014 45.9678 96.5243 46.2848 96.7532 46.8492C96.8079 46.9957 96.7715 47.0701 96.6076 47.1205L96.0223 47.3127C95.8532 47.3583 95.7881 47.3343 95.7283 47.1782C95.6908 47.07 95.613 46.9776 95.5087 46.9174C95.4044 46.8571 95.2804 46.833 95.1586 46.8492C94.7268 46.8492 94.5577 47.0197 94.5577 47.3727V48.2901C94.5577 48.6432 94.7268 48.8161 95.1586 48.8161C95.2808 48.8329 95.4054 48.809 95.5103 48.7487C95.6151 48.6885 95.6933 48.5957 95.7309 48.4871C95.7959 48.331 95.861 48.2973 96.0249 48.3526L96.6102 48.5423C96.7741 48.5927 96.8105 48.6696 96.7558 48.8161C96.5269 49.3805 96.004 49.6975 95.1612 49.6975C94.0868 49.6975 93.4807 49.1595 93.4807 48.2853V47.3799C93.4781 46.5057 94.0842 45.9678 95.1586 45.9678Z" fill="white"/>
<path d="M99.5342 45.9678C100.611 45.9678 101.212 46.5057 101.212 47.3799V48.2853C101.212 49.1595 100.611 49.6975 99.5342 49.6975C98.4573 49.6975 97.8538 49.1595 97.8538 48.2853V47.3799C97.8538 46.5057 98.4547 45.9678 99.5342 45.9678ZM99.5342 46.8492C99.1518 46.8492 98.9333 47.0149 98.9333 47.3295V48.3262C98.9333 48.6456 99.1518 48.8065 99.5342 48.8065C99.9167 48.8065 100.13 48.6408 100.13 48.3262V47.3343C100.13 47.0149 99.9114 46.8492 99.5342 46.8492V46.8492Z" fill="white"/>
<path d="M105.767 46.2555V49.4136C105.767 49.5697 105.707 49.6249 105.538 49.6249H104.921C104.878 49.6295 104.833 49.6225 104.794 49.6046C104.754 49.5867 104.721 49.5588 104.698 49.524L103.857 48.3232C103.637 48.004 103.474 47.6536 103.376 47.2857H103.332C103.453 47.7097 103.513 48.1465 103.511 48.585V49.4088C103.511 49.5649 103.452 49.6201 103.277 49.6201H102.726C102.552 49.6201 102.492 49.5649 102.492 49.4088V46.2555C102.492 46.0994 102.552 46.0441 102.726 46.0441H103.371C103.416 46.0382 103.461 46.0447 103.502 46.0626C103.543 46.0805 103.577 46.1092 103.6 46.145L104.495 47.437C104.683 47.7288 104.837 48.0379 104.955 48.3593H104.997C104.832 47.9515 104.749 47.5193 104.752 47.084V46.2555C104.752 46.0994 104.807 46.0441 104.981 46.0441H105.538C105.707 46.0441 105.767 46.1114 105.767 46.2555Z" fill="white"/>
<path d="M110.41 46.2555V49.4136C110.41 49.5697 110.351 49.6249 110.181 49.6249H109.565C109.521 49.6295 109.477 49.6225 109.437 49.6046C109.398 49.5867 109.364 49.5588 109.341 49.524L108.501 48.3232C108.28 48.004 108.118 47.6536 108.02 47.2857H107.976C108.097 47.7097 108.157 48.1465 108.155 48.585V49.4088C108.155 49.5649 108.095 49.6201 107.921 49.6201H107.369C107.195 49.6201 107.135 49.5649 107.135 49.4088V46.2555C107.135 46.0994 107.195 46.0441 107.369 46.0441H108.015C108.059 46.0382 108.105 46.0447 108.145 46.0626C108.186 46.0805 108.22 46.1092 108.243 46.145L109.138 47.437C109.326 47.7288 109.48 48.0379 109.599 48.3593H109.64C109.475 47.9515 109.393 47.5193 109.396 47.084V46.2555C109.396 46.0994 109.45 46.0441 109.625 46.0441H110.181C110.351 46.0441 110.41 46.1114 110.41 46.2555Z" fill="white"/>
<path d="M114.536 46.2553V46.7092C114.536 46.8701 114.477 46.9253 114.302 46.9253H112.859V47.3744H114.011C114.185 47.3744 114.248 47.4297 114.248 47.5882V48.0325C114.248 48.1934 114.185 48.2486 114.011 48.2486H112.859V48.7289H114.352C114.521 48.7289 114.581 48.7794 114.581 48.9427V49.4014C114.581 49.5575 114.521 49.6127 114.352 49.6127H112.01C111.836 49.6127 111.776 49.5575 111.776 49.4014V46.2553C111.776 46.0992 111.836 46.0439 112.01 46.0439H114.3C114.477 46.0439 114.536 46.1112 114.536 46.2553Z" fill="white"/>
<path d="M117.367 45.9678C118.207 45.9678 118.732 46.2848 118.961 46.8492C119.016 46.9957 118.977 47.0701 118.813 47.1205L118.23 47.3127C118.059 47.3583 117.994 47.3343 117.934 47.1782C117.896 47.0705 117.819 46.9784 117.715 46.9182C117.611 46.858 117.488 46.8336 117.367 46.8492C116.935 46.8492 116.766 47.0197 116.766 47.3727V48.2901C116.766 48.6432 116.935 48.8161 117.367 48.8161C117.488 48.8317 117.611 48.8072 117.715 48.747C117.819 48.6868 117.896 48.5948 117.934 48.4871C117.999 48.331 118.064 48.2973 118.23 48.3526L118.813 48.5423C118.977 48.5927 119.016 48.6696 118.961 48.8161C118.732 49.3805 118.207 49.6975 117.367 49.6975C116.29 49.6975 115.684 49.1595 115.684 48.2853V47.3799C115.684 46.5057 116.282 45.9678 117.367 45.9678Z" fill="white"/>
<path d="M123.113 46.2553V46.7092C123.113 46.8701 123.053 46.9253 122.879 46.9253H122.07V49.4134C122.07 49.5695 122.01 49.6248 121.833 49.6248H121.224C121.05 49.6248 120.995 49.5695 120.995 49.4134V46.9253H120.184C120.009 46.9253 119.955 46.8701 119.955 46.7092V46.2553C119.955 46.0992 120.009 46.0439 120.184 46.0439H122.889C123.045 46.0439 123.113 46.1112 123.113 46.2553Z" fill="white"/>
<path d="M124.484 46.0439H125.126C125.29 46.0439 125.345 46.0944 125.345 46.2457V49.423C125.345 49.5743 125.29 49.6248 125.126 49.6248H124.481C124.317 49.6248 124.263 49.5743 124.263 49.423V46.2457C124.265 46.0944 124.32 46.0439 124.484 46.0439Z" fill="white"/>
<path d="M130.142 46.2505L128.935 49.447C128.88 49.5935 128.81 49.6248 128.651 49.6248H127.97C127.811 49.6248 127.736 49.5887 127.686 49.459L126.471 46.2505C126.419 46.1136 126.471 46.0439 126.63 46.0439H127.254C127.533 46.0439 127.621 46.0992 127.663 46.2553L128.183 47.9796C128.24 48.1936 128.28 48.4111 128.303 48.6305H128.352C128.367 48.4122 128.406 48.1958 128.467 47.9845L128.987 46.2553C129.031 46.0992 129.114 46.0439 129.38 46.0439H129.999C130.16 46.0439 130.199 46.1112 130.142 46.2505Z" fill="white"/>
<path d="M131.481 46.0439H132.127C132.29 46.0439 132.345 46.0944 132.345 46.2457V49.423C132.345 49.5743 132.29 49.6248 132.127 49.6248H131.481C131.318 49.6248 131.263 49.5743 131.263 49.423V46.2457C131.263 46.0944 131.318 46.0439 131.481 46.0439Z" fill="white"/>
<path d="M136.677 46.2553V46.7092C136.677 46.8701 136.617 46.9253 136.443 46.9253H135.634V49.4134C135.634 49.5695 135.574 49.6248 135.4 49.6248H134.783C134.606 49.6248 134.551 49.5695 134.551 49.4134V46.9253H133.737C133.563 46.9253 133.508 46.8701 133.508 46.7092V46.2553C133.508 46.0992 133.563 46.0439 133.737 46.0439H136.443C136.617 46.0439 136.677 46.1112 136.677 46.2553Z" fill="white"/>
<path d="M141.2 46.2553L139.939 48.2366V49.4134C139.939 49.5695 139.884 49.6248 139.71 49.6248H139.091C138.916 49.6248 138.857 49.5695 138.857 49.4134V48.2366L137.613 46.2553C137.538 46.14 137.559 46.0439 137.728 46.0439H138.383C138.656 46.0439 138.734 46.0439 138.838 46.2313L139.421 47.2592L140.022 46.2313C140.126 46.0536 140.202 46.0439 140.469 46.0439H141.099C141.255 46.0439 141.271 46.14 141.2 46.2553Z" fill="white"/>
<path d="M144.195 46.0439H144.84C145.004 46.0439 145.058 46.0944 145.058 46.2457V49.423C145.058 49.5743 145.004 49.6248 144.84 49.6248H144.195C144.031 49.6248 143.976 49.5743 143.976 49.423V46.2457C143.976 46.0944 144.031 46.0439 144.195 46.0439Z" fill="white"/>
<path d="M149.707 46.2555V49.4136C149.707 49.5697 149.647 49.6249 149.475 49.6249H148.859C148.815 49.6295 148.771 49.6225 148.731 49.6046C148.691 49.5867 148.658 49.5588 148.635 49.524L147.795 48.3232C147.575 48.0035 147.413 47.6532 147.314 47.2857H147.269C147.391 47.7097 147.451 48.1465 147.449 48.585V49.4088C147.449 49.5649 147.389 49.6201 147.215 49.6201H146.663C146.489 49.6201 146.429 49.5649 146.429 49.4088V46.2555C146.429 46.0994 146.489 46.0441 146.663 46.0441H147.308C147.353 46.0382 147.399 46.0447 147.439 46.0626C147.48 46.0805 147.514 46.1092 147.537 46.145L148.432 47.437C148.62 47.7288 148.774 48.0379 148.893 48.3593H148.934C148.769 47.9515 148.687 47.5193 148.69 47.084V46.2555C148.69 46.0994 148.744 46.0441 148.919 46.0441H149.475C149.647 46.0441 149.707 46.1114 149.707 46.2555Z" fill="white"/>
<path d="M156.119 47.4561V48.2126C156.119 49.0796 155.518 49.6248 154.442 49.6248H153.11C152.935 49.6248 152.875 49.5695 152.875 49.4134V46.2553C152.875 46.0992 152.935 46.0439 153.11 46.0439H154.442C155.518 46.0439 156.119 46.5915 156.119 47.4561ZM154.405 46.9253H153.958V48.753H154.405C154.847 48.753 155.037 48.568 155.037 48.2102V47.4897C155.042 47.1127 154.847 46.9253 154.405 46.9253Z" fill="white"/>
<path d="M157.61 46.0439H158.255C158.419 46.0439 158.473 46.0944 158.473 46.2457V49.423C158.473 49.5743 158.419 49.6248 158.255 49.6248H157.61C157.446 49.6248 157.391 49.5743 157.391 49.423V46.2457C157.383 46.0944 157.446 46.0439 157.61 46.0439Z" fill="white"/>
<path d="M163.106 47.7917V48.4594C163.106 49.1799 162.505 49.7082 161.429 49.7082C160.352 49.7082 159.748 49.1703 159.748 48.2961V47.3907C159.748 46.5165 160.354 45.9785 161.429 45.9785C162.271 45.9785 162.794 46.2955 163.023 46.8599C163.078 47.0064 163.041 47.0809 162.877 47.1313L162.292 47.3234C162.123 47.3739 162.058 47.345 161.998 47.1889C161.961 47.0808 161.883 46.9884 161.779 46.9281C161.674 46.8679 161.55 46.8437 161.429 46.8599C160.997 46.8599 160.828 47.0304 160.828 47.3835V48.3009C160.828 48.6539 160.997 48.8268 161.429 48.8268C161.795 48.8268 162.019 48.6995 162.019 48.4834V48.3825H161.499C161.327 48.3825 161.267 48.3321 161.267 48.1712V47.7917C161.267 47.6308 161.327 47.5756 161.499 47.5756H162.88C163.057 47.566 163.106 47.6212 163.106 47.7917Z" fill="white"/>
<path d="M164.582 46.0439H165.227C165.391 46.0439 165.445 46.0944 165.445 46.2457V49.423C165.445 49.5743 165.391 49.6248 165.227 49.6248H164.582C164.418 49.6248 164.363 49.5743 164.363 49.423V46.2457C164.363 46.0944 164.407 46.0439 164.582 46.0439Z" fill="white"/>
<path d="M169.777 46.2553V46.7092C169.777 46.8701 169.717 46.9253 169.543 46.9253H168.733V49.4134C168.733 49.5695 168.674 49.6248 168.499 49.6248H167.88C167.706 49.6248 167.651 49.5695 167.651 49.4134V46.9253H166.837C166.663 46.9253 166.608 46.8701 166.608 46.7092V46.2553C166.608 46.0992 166.663 46.0439 166.837 46.0439H169.543C169.717 46.0439 169.777 46.1112 169.777 46.2553Z" fill="white"/>
<path d="M173.791 49.625H173.203C172.917 49.625 172.836 49.5698 172.792 49.4137L172.667 49.0486H171.486L171.361 49.4137C171.306 49.5698 171.236 49.625 170.963 49.625H170.391C170.222 49.625 170.19 49.553 170.245 49.4185L171.502 46.2195C171.554 46.0755 171.626 46.0442 171.785 46.0442H172.407C172.468 46.0365 172.529 46.0489 172.581 46.0792C172.633 46.1096 172.672 46.1559 172.69 46.2099L173.952 49.4185C174.004 49.553 173.955 49.625 173.791 49.625ZM172.097 46.9616H172.043C172.043 47.1986 172.009 47.4345 171.941 47.6629L171.738 48.2585H172.42L172.219 47.6677C172.151 47.4372 172.11 47.2004 172.097 46.9616V46.9616Z" fill="white"/>
<path d="M176.147 46.2553V48.753H177.464C177.633 48.753 177.693 48.8034 177.693 48.9667V49.4254C177.693 49.5815 177.633 49.6367 177.464 49.6367H175.299C175.125 49.6367 175.065 49.5815 175.065 49.4254V46.2553C175.065 46.0992 175.125 46.0439 175.299 46.0439H175.916C176.093 46.0439 176.147 46.1112 176.147 46.2553Z" fill="white"/>
<path d="M60.4899 13.6027V23.6559C60.4899 24.2928 60.2159 24.9037 59.728 25.354C59.2402 25.8044 58.5785 26.0575 57.8886 26.0575H46.8379C46.148 26.0575 45.4863 25.8044 44.9984 25.354C44.5106 24.9037 44.2365 24.2928 44.2365 23.6559V20.5073C44.2365 19.4245 43.7706 18.3861 42.9412 17.6204C42.1119 16.8548 40.987 16.4246 39.8142 16.4246H30.9851C27.0787 16.4246 23.3321 17.8568 20.5691 20.4062C17.8062 22.9556 16.2529 26.4137 16.2508 30.0201V44.12C16.2508 47.7276 17.8032 51.1875 20.5664 53.7385C23.3296 56.2895 27.0773 57.7227 30.9851 57.7227H39.8298C41.0026 57.7227 42.1275 57.2925 42.9568 56.5269C43.7862 55.7612 44.2521 54.7228 44.2521 53.6399V49.9535C44.2521 49.3165 44.5262 48.7057 45.014 48.2553C45.5019 47.8049 46.1636 47.5519 46.8535 47.5519H57.9042C58.5941 47.5519 59.2558 47.8049 59.7436 48.2553C60.2315 48.7057 60.5055 49.3165 60.5055 49.9535V73.153H29.4685C21.6529 73.153 14.1575 70.2867 8.63111 65.1847C3.1047 60.0827 0 53.1629 0 45.9476L0 29.9265C0 21.9895 3.41523 14.3776 9.49437 8.76526C15.5735 3.15296 23.8186 0 32.4158 0L45.7557 0C47.6906 0 49.6066 0.351845 51.3943 1.03545C53.1819 1.71905 54.8062 2.72101 56.1744 3.98414C57.5426 5.24727 58.6279 6.74682 59.3684 8.39718C60.1088 10.0475 60.4899 11.8164 60.4899 13.6027V13.6027Z" fill="url(#paint0_linear)"/>
<path d="M62.7843 75.0624H48.8305C48.7631 75.0621 48.6977 75.0832 48.6452 75.1221C48.5927 75.161 48.5562 75.2153 48.5419 75.2761C48.5276 75.3368 48.5363 75.4003 48.5665 75.4558C48.5968 75.5114 48.6468 75.5556 48.7082 75.5812L75.5597 87.0008L63.2135 62.2018C63.1858 62.1449 63.1376 62.0987 63.0772 62.0707C63.0168 62.0428 62.9478 62.0349 62.8818 62.0485C62.8158 62.062 62.7569 62.0961 62.715 62.145C62.6731 62.194 62.6507 62.2547 62.6516 62.3171V75.1945" fill="url(#paint1_linear)"/>
<path d="M24.7817 35.6374L32.6981 30.9958C33.4237 30.5703 34.3028 30.4284 35.1418 30.6012C35.9808 30.7741 36.7111 31.2476 37.1719 31.9175L37.667 32.6372L27.5043 38.596C27.3721 38.6735 27.2119 38.6994 27.0591 38.6679C26.9062 38.6364 26.7732 38.5501 26.6892 38.4281L24.7729 35.6426L24.7817 35.6374Z" fill="url(#paint2_linear)"/>
<path d="M24.4126 41.0993L34.5666 35.1457C34.6321 35.1073 34.7051 35.0812 34.7815 35.0688C34.8578 35.0565 34.9361 35.0582 35.0118 35.0738C35.0875 35.0894 35.1591 35.1186 35.2226 35.1597C35.286 35.2009 35.3401 35.2531 35.3817 35.3136L37.2979 38.0991L29.3794 42.742C28.6537 43.1675 27.7747 43.3094 26.9357 43.1365C26.0967 42.9637 25.3664 42.4902 24.9055 41.8203L24.4104 41.1006L24.4126 41.0993Z" fill="url(#paint3_linear)"/>
<path d="M57.584 26.0578C57.584 26.0578 60.5287 25.7432 60.5287 23.3368C60.5287 20.9304 60.4247 20.2772 60.6276 19.6527C60.8305 19.0283 61.7748 16.4322 64.7898 16.4298C67.8048 16.4274 74.9092 16.4682 74.9092 16.4682C74.9092 16.4682 76.9148 16.1752 80.9183 18.1325C84.9219 20.0898 88.4858 24.4824 88.4962 29.5306C88.5066 34.5787 88.4806 44.9273 88.4806 44.9273C88.4806 44.9273 88.2334 49.4711 85.234 52.6749C82.2346 55.8786 78.3014 57.4781 76.1682 57.5525C74.0351 57.627 74.212 57.7327 72.8333 57.7327C71.4545 57.7327 64.4282 57.7038 64.4282 57.7038C64.4282 57.7038 63.3122 57.8383 61.8762 56.5919C60.4403 55.3455 60.5183 53.4698 60.5183 53.4698L60.4793 49.9731C60.4484 49.5421 60.291 49.127 60.0241 48.7723C59.6104 48.3184 59.111 47.8308 58.5179 47.7059C57.9247 47.5811 55.4404 47.5618 55.4404 47.5618V26.0578" fill="url(#paint4_linear)"/>
<path d="M73.7169 34.3289L71.4507 36.4211C71.416 36.453 71.369 36.471 71.3201 36.471C71.2711 36.471 71.2241 36.453 71.1895 36.4211L68.9232 34.3289C68.6793 34.1037 68.5423 33.7983 68.5423 33.4798C68.5423 33.1613 68.6793 32.8559 68.9232 32.6307L71.1839 30.5436C71.2186 30.5116 71.2656 30.4937 71.3145 30.4937C71.3635 30.4937 71.4105 30.5116 71.4451 30.5436L73.715 32.6392C73.959 32.8644 74.096 33.1698 74.096 33.4883C74.096 33.8068 73.959 34.1122 73.715 34.3374L73.7169 34.3289Z" fill="url(#paint5_linear)"/>
<path d="M68.3016 34.6262L70.5678 36.7184C70.585 36.7342 70.5986 36.753 70.6079 36.7737C70.6171 36.7944 70.6219 36.8166 70.6219 36.839C70.6219 36.8614 70.6171 36.8835 70.6079 36.9042C70.5986 36.9249 70.585 36.9437 70.5678 36.9595L68.3016 39.0517C68.0577 39.2769 67.7268 39.4034 67.3819 39.4034C67.0369 39.4034 66.7061 39.2769 66.4622 39.0517L64.207 36.9697C64.1723 36.9378 64.1529 36.8944 64.1529 36.8492C64.1529 36.8039 64.1723 36.7606 64.207 36.7286L66.4787 34.6313C66.7226 34.4061 67.0535 34.2796 67.3984 34.2796C67.7434 34.2796 68.0742 34.4061 68.3182 34.6313L68.3016 34.6262Z" fill="url(#paint6_linear)"/>
<path d="M75.9651 34.6313L78.2313 36.7235C78.2485 36.7393 78.2621 36.7581 78.2713 36.7788C78.2806 36.7995 78.2854 36.8217 78.2854 36.8441C78.2854 36.8665 78.2806 36.8886 78.2713 36.9093C78.2621 36.93 78.2485 36.9488 78.2313 36.9646L75.9651 39.0568C75.7212 39.282 75.3903 39.4085 75.0454 39.4085C74.7004 39.4085 74.3696 39.282 74.1256 39.0568L71.8649 36.9697C71.8303 36.9378 71.8108 36.8944 71.8108 36.8492C71.8108 36.8039 71.8303 36.7606 71.8649 36.7286L74.1367 34.6313C74.3806 34.4061 74.7114 34.2796 75.0564 34.2796C75.4014 34.2796 75.7322 34.4061 75.9761 34.6313L75.9651 34.6313Z" fill="url(#paint7_linear)"/>
<path d="M73.7145 41.0254L71.4483 43.1176C71.4137 43.1496 71.3667 43.1675 71.3177 43.1675C71.2687 43.1675 71.2218 43.1496 71.1871 43.1176L68.9209 41.0254C68.677 40.8002 68.54 40.4948 68.54 40.1763C68.54 39.8579 68.677 39.5524 68.9209 39.3272L71.1816 37.2402C71.2163 37.2082 71.2632 37.1902 71.3122 37.1902C71.3612 37.1902 71.4082 37.2082 71.4428 37.2402L73.7145 39.3374C73.9585 39.5626 74.0955 39.8681 74.0955 40.1865C74.0955 40.505 73.9585 40.8104 73.7145 41.0356V41.0254Z" fill="url(#paint8_linear)"/>
<path d="M108.998 40.0145H106.397C105.15 40.0145 104.789 39.7744 104.599 39.0851L104.055 37.4904H98.8681L98.3166 39.0851C98.0773 39.7719 97.7677 40.0145 96.5685 40.0145H94.0503C93.3089 40.0145 93.1632 39.7047 93.4026 39.1067L98.9175 25.0765C99.1568 24.4353 99.469 24.3008 100.164 24.3008H102.895C103.592 24.3008 103.904 24.4569 104.144 25.0213L109.679 39.0947C109.919 39.7047 109.703 40.0145 108.998 40.0145ZM101.553 28.3379H101.313C101.311 29.3775 101.158 30.4122 100.858 31.4143L99.9711 34.0273H102.968L102.081 31.4384C101.78 30.4264 101.602 29.3864 101.553 28.3379V28.3379Z" fill="black"/>
<path d="M117.783 23.9707C121.331 23.9707 123.345 24.9458 124.471 27.0688C124.807 27.71 124.614 28.0438 123.896 28.308L121.498 29.2687C120.852 29.5352 120.587 29.4464 120.197 28.8051C119.742 27.9646 118.878 27.6548 117.775 27.6548C116.147 27.6548 115.499 28.0294 115.499 28.8051C115.499 29.7658 116.911 29.9555 118.639 30.1549C121.427 30.5007 125.022 31.1203 125.022 35.3039C125.022 38.5581 121.833 40.3473 117.59 40.3473C114.019 40.3473 111.526 39.2185 110.616 36.9178C110.356 36.2525 110.567 35.9427 111.264 35.7002L113.517 34.9485C114.235 34.7275 114.57 34.7924 114.929 35.4288C115.361 36.2045 116.297 36.6032 117.64 36.6032C119.245 36.6032 120.205 36.2934 120.205 35.3423C120.205 34.4778 118.982 34.2352 117.4 34.0359C114.594 33.6804 110.663 33.2169 110.663 28.9228C110.663 26.0073 113.204 23.9707 117.783 23.9707Z" fill="black"/>
<path d="M128.248 24.3008H131.076C131.796 24.3008 132.036 24.5241 132.036 25.187V39.1283C132.036 39.7936 131.796 40.0145 131.076 40.0145H128.248C127.527 40.0145 127.288 39.7936 127.288 39.1283V25.187C127.298 24.5241 127.538 24.3008 128.248 24.3008Z" fill="black"/>
<path d="M149.4 31.9416V34.862C149.4 37.9841 146.765 40.3497 142.04 40.3497C137.316 40.3497 134.658 37.9817 134.658 34.1535V30.1669C134.658 26.3387 137.319 23.9707 142.04 23.9707C145.734 23.9707 148.024 25.366 149.041 27.8445C149.28 28.4857 149.114 28.8051 148.393 29.0453L145.831 29.8859C145.087 30.1092 144.79 29.9747 144.53 29.2903C144.098 28.2936 143.378 27.8493 142.035 27.8493C140.144 27.8493 139.4 28.601 139.4 30.15V34.1775C139.4 35.7266 140.144 36.4807 142.035 36.4807C143.643 36.4807 144.637 35.9259 144.637 34.9749V34.533H142.334C141.59 34.533 141.328 34.3096 141.328 33.6036V31.9416C141.328 31.2212 141.588 30.981 142.334 30.981H148.398C149.16 30.981 149.4 31.2212 149.4 31.9416Z" fill="black"/>
<path d="M108.998 40.0145H106.397C105.15 40.0145 104.789 39.7744 104.599 39.0851L104.055 37.4904H98.8681L98.3166 39.0851C98.0773 39.7719 97.7677 40.0145 96.5685 40.0145H94.0503C93.3089 40.0145 93.1632 39.7047 93.4026 39.1067L98.9175 25.0765C99.1568 24.4353 99.469 24.3008 100.164 24.3008H102.895C103.592 24.3008 103.904 24.4569 104.144 25.0213L109.679 39.0947C109.919 39.7047 109.703 40.0145 108.998 40.0145ZM101.553 28.3379H101.313C101.311 29.3775 101.158 30.4122 100.858 31.4143L99.9711 34.0273H102.968L102.081 31.4384C101.78 30.4264 101.602 29.3864 101.553 28.3379V28.3379Z" fill="#1275E0"/>
<path d="M117.783 23.9707C121.331 23.9707 123.345 24.9458 124.471 27.0688C124.807 27.71 124.614 28.0438 123.896 28.308L121.498 29.2687C120.852 29.5352 120.587 29.4464 120.197 28.8051C119.742 27.9646 118.878 27.6548 117.775 27.6548C116.147 27.6548 115.499 28.0294 115.499 28.8051C115.499 29.7658 116.911 29.9555 118.639 30.1549C121.427 30.5007 125.022 31.1203 125.022 35.3039C125.022 38.5581 121.833 40.3473 117.59 40.3473C114.019 40.3473 111.526 39.2185 110.616 36.9178C110.356 36.2525 110.567 35.9427 111.264 35.7002L113.517 34.9485C114.235 34.7275 114.57 34.7924 114.929 35.4288C115.361 36.2045 116.297 36.6032 117.64 36.6032C119.245 36.6032 120.205 36.2934 120.205 35.3423C120.205 34.4778 118.982 34.2352 117.4 34.0359C114.594 33.6804 110.663 33.2169 110.663 28.9228C110.663 26.0073 113.204 23.9707 117.783 23.9707Z" fill="#1275E0"/>
<path d="M128.248 24.3008H131.076C131.796 24.3008 132.036 24.5241 132.036 25.187V39.1283C132.036 39.7936 131.796 40.0145 131.076 40.0145H128.248C127.527 40.0145 127.288 39.7936 127.288 39.1283V25.187C127.298 24.5241 127.538 24.3008 128.248 24.3008Z" fill="#1275E0"/>
<path d="M149.4 31.9416V34.862C149.4 37.9841 146.765 40.3497 142.04 40.3497C137.316 40.3497 134.658 37.9817 134.658 34.1535V30.1669C134.658 26.3387 137.319 23.9707 142.04 23.9707C145.734 23.9707 148.024 25.366 149.041 27.8445C149.28 28.4857 149.114 28.8051 148.393 29.0453L145.831 29.8859C145.087 30.1092 144.79 29.9747 144.53 29.2903C144.098 28.2936 143.378 27.8493 142.035 27.8493C140.144 27.8493 139.4 28.601 139.4 30.15V34.1775C139.4 35.7266 140.144 36.4807 142.035 36.4807C143.643 36.4807 144.637 35.9259 144.637 34.9749V34.533H142.334C141.59 34.533 141.328 34.3096 141.328 33.6036V31.9416C141.328 31.2212 141.588 30.981 142.334 30.981H148.398C149.16 30.981 149.4 31.2212 149.4 31.9416Z" fill="#1275E0"/>
<path d="M162.586 25.5656V39.4181C162.586 40.1049 162.347 40.3475 161.58 40.3475H158.882C158.102 40.3475 157.842 40.1073 157.842 39.4181V30.1887L156.234 31.0317C155.453 31.4279 155.037 31.2718 154.673 30.6546L153.547 28.7742C153.188 28.1545 153.38 27.8663 154.028 27.4893L158.71 25.0108C159.129 24.7377 159.637 24.6055 160.149 24.6362H161.587C162.357 24.6362 162.586 24.8787 162.586 25.5656Z" fill="black"/>
<path d="M180 34.7494V36.2984C180 36.9829 179.74 37.2278 178.993 37.2278H177.771V39.4181C177.771 40.105 177.51 40.3475 176.764 40.3475H174.293C173.512 40.3475 173.286 40.1074 173.286 39.4181V37.2254H166.025C165.281 37.2254 165.019 36.9853 165.019 36.296V34.8358C165.019 34.1033 165.065 33.8392 165.539 33.33L172.823 25.2966C173.301 24.7875 173.603 24.6338 174.384 24.6338H176.756C177.5 24.6338 177.763 24.874 177.763 25.5632V33.8175H178.985C179.737 33.8199 180 34.0625 180 34.7494ZM173.288 30.0782L169.933 33.8199H173.288V30.0782Z" fill="black"/>
<path d="M162.586 25.5656V39.4181C162.586 40.1049 162.347 40.3475 161.58 40.3475H158.882C158.102 40.3475 157.842 40.1073 157.842 39.4181V30.1887L156.234 31.0317C155.453 31.4279 155.037 31.2718 154.673 30.6546L153.547 28.7742C153.188 28.1545 153.38 27.8663 154.028 27.4893L158.71 25.0108C159.129 24.7377 159.637 24.6055 160.149 24.6362H161.587C162.357 24.6362 162.586 24.8787 162.586 25.5656Z" fill="#1275E0"/>
<path d="M180 34.7494V36.2984C180 36.9829 179.74 37.2278 178.993 37.2278H177.771V39.4181C177.771 40.105 177.51 40.3475 176.764 40.3475H174.293C173.512 40.3475 173.286 40.1074 173.286 39.4181V37.2254H166.025C165.281 37.2254 165.019 36.9853 165.019 36.296V34.8358C165.019 34.1033 165.065 33.8392 165.539 33.33L172.823 25.2966C173.301 24.7875 173.603 24.6338 174.384 24.6338H176.756C177.5 24.6338 177.763 24.874 177.763 25.5632V33.8175H178.985C179.737 33.8199 180 34.0625 180 34.7494ZM173.288 30.0782L169.933 33.8199H173.288V30.0782Z" fill="#1275E0"/>
<defs>
<linearGradient id="paint0_linear" x1="30.2437" y1="0" x2="30.2437" y2="73.153" gradientUnits="userSpaceOnUse">
<stop stop-color="#685AE5"/>
<stop offset="0.04" stop-color="#625CE5"/>
<stop offset="0.55" stop-color="#1275E0"/>
<stop offset="0.63" stop-color="#1671DF" stop-opacity="0.98"/>
<stop offset="0.72" stop-color="#2366DB" stop-opacity="0.93"/>
<stop offset="0.83" stop-color="#3853D6" stop-opacity="0.85"/>
<stop offset="0.93" stop-color="#5538CE" stop-opacity="0.73"/>
<stop offset="0.95" stop-color="#5D31CC" stop-opacity="0.7"/>
</linearGradient>
<linearGradient id="paint1_linear" x1="6494.43" y1="6509.65" x2="6494.43" y2="9103.62" gradientUnits="userSpaceOnUse">
<stop stop-color="#685AE5"/>
<stop offset="0.04" stop-color="#625CE5"/>
<stop offset="0.55" stop-color="#1275E0"/>
<stop offset="0.63" stop-color="#1671DF" stop-opacity="0.98"/>
<stop offset="0.72" stop-color="#2366DB" stop-opacity="0.93"/>
<stop offset="0.83" stop-color="#3853D6" stop-opacity="0.85"/>
<stop offset="0.93" stop-color="#5538CE" stop-opacity="0.73"/>
<stop offset="0.95" stop-color="#5D31CC" stop-opacity="0.7"/>
</linearGradient>
<linearGradient id="paint2_linear" x1="1540.85" y1="520.91" x2="1540.85" y2="651.37" gradientUnits="userSpaceOnUse">
<stop stop-color="#685AE5"/>
<stop offset="0.04" stop-color="#625CE5"/>
<stop offset="0.55" stop-color="#1275E0"/>
<stop offset="0.63" stop-color="#1671DF" stop-opacity="0.98"/>
<stop offset="0.72" stop-color="#2366DB" stop-opacity="0.93"/>
<stop offset="0.83" stop-color="#3853D6" stop-opacity="0.85"/>
<stop offset="0.93" stop-color="#5538CE" stop-opacity="0.73"/>
<stop offset="0.95" stop-color="#5D31CC" stop-opacity="0.7"/>
</linearGradient>
<linearGradient id="paint3_linear" x1="1521.63" y1="598.966" x2="1521.63" y2="729.387" gradientUnits="userSpaceOnUse">
<stop stop-color="#685AE5"/>
<stop offset="0.04" stop-color="#625CE5"/>
<stop offset="0.55" stop-color="#1275E0"/>
<stop offset="0.63" stop-color="#1671DF" stop-opacity="0.98"/>
<stop offset="0.72" stop-color="#2366DB" stop-opacity="0.93"/>
<stop offset="0.83" stop-color="#3853D6" stop-opacity="0.85"/>
<stop offset="0.93" stop-color="#5538CE" stop-opacity="0.73"/>
<stop offset="0.95" stop-color="#5D31CC" stop-opacity="0.7"/>
</linearGradient>
<linearGradient id="paint4_linear" x1="55.4508" y1="37.0812" x2="88.5092" y2="37.0812" gradientUnits="userSpaceOnUse">
<stop stop-color="white" stop-opacity="0"/>
<stop offset="0.27" stop-color="#F5F9FE" stop-opacity="0.01"/>
<stop offset="0.48" stop-color="#D7E8FA" stop-opacity="0.06"/>
<stop offset="0.67" stop-color="#A5CBF3" stop-opacity="0.13"/>
<stop offset="0.85" stop-color="#5EA1EA" stop-opacity="0.24"/>
<stop offset="1" stop-color="#1275E0" stop-opacity="0.35"/>
</linearGradient>
<linearGradient id="paint5_linear" x1="1352.73" y1="581.761" x2="1352.73" y2="689.571" gradientUnits="userSpaceOnUse">
<stop stop-color="#685AE5"/>
<stop offset="0.04" stop-color="#625CE5"/>
<stop offset="0.55" stop-color="#1275E0"/>
<stop offset="0.63" stop-color="#1671DF" stop-opacity="0.98"/>
<stop offset="0.72" stop-color="#2366DB" stop-opacity="0.93"/>
<stop offset="0.83" stop-color="#3853D6" stop-opacity="0.85"/>
<stop offset="0.93" stop-color="#5538CE" stop-opacity="0.73"/>
<stop offset="0.95" stop-color="#5D31CC" stop-opacity="0.7"/>
</linearGradient>
<linearGradient id="paint6_linear" x1="1276.08" y1="653.783" x2="1276.08" y2="746.341" gradientUnits="userSpaceOnUse">
<stop stop-color="#685AE5"/>
<stop offset="0.04" stop-color="#625CE5"/>
<stop offset="0.55" stop-color="#1275E0"/>
<stop offset="0.63" stop-color="#1671DF" stop-opacity="0.98"/>
<stop offset="0.72" stop-color="#2366DB" stop-opacity="0.93"/>
<stop offset="0.83" stop-color="#3853D6" stop-opacity="0.85"/>
<stop offset="0.93" stop-color="#5538CE" stop-opacity="0.73"/>
<stop offset="0.95" stop-color="#5D31CC" stop-opacity="0.7"/>
</linearGradient>
<linearGradient id="paint7_linear" x1="1423.61" y1="653.782" x2="1423.61" y2="746.34" gradientUnits="userSpaceOnUse">
<stop stop-color="#685AE5"/>
<stop offset="0.04" stop-color="#625CE5"/>
<stop offset="0.55" stop-color="#1275E0"/>
<stop offset="0.63" stop-color="#1671DF" stop-opacity="0.98"/>
<stop offset="0.72" stop-color="#2366DB" stop-opacity="0.93"/>
<stop offset="0.83" stop-color="#3853D6" stop-opacity="0.85"/>
<stop offset="0.93" stop-color="#5538CE" stop-opacity="0.73"/>
<stop offset="0.95" stop-color="#5D31CC" stop-opacity="0.7"/>
</linearGradient>
<linearGradient id="paint8_linear" x1="1352.73" y1="709.731" x2="1352.73" y2="817.644" gradientUnits="userSpaceOnUse">
<stop stop-color="#685AE5"/>
<stop offset="0.04" stop-color="#625CE5"/>
<stop offset="0.55" stop-color="#1275E0"/>
<stop offset="0.63" stop-color="#1671DF" stop-opacity="0.98"/>
<stop offset="0.72" stop-color="#2366DB" stop-opacity="0.93"/>
<stop offset="0.83" stop-color="#3853D6" stop-opacity="0.85"/>
<stop offset="0.93" stop-color="#5538CE" stop-opacity="0.73"/>
<stop offset="0.95" stop-color="#5D31CC" stop-opacity="0.7"/>
</linearGradient>
</defs>
</svg>
