<svg id="Layer_1" data-name="Layer 1" xmlns="http://www.w3.org/2000/svg" viewBox="0 0 949.03 779.74"><defs><style>.cls-1{fill:#fff;}</style></defs><title>valorant logo white</title><path class="cls-1" d="M7.88,0c2.25,1.15,3.76,3.06,5.3,5Q163.11,192.43,313.06,379.86L623.52,767.94c.43.54.88,1.08,1.29,1.63,2.83,3.78,1.66,8-2.7,9.76-.28.11-.54.27-.82.41H326.63a3.54,3.54,0,0,0-.84-.34c-7.36-1-13.08-4.61-17.68-10.37q-30.33-38-60.75-76L36.85,429.94q-15-18.81-30.1-37.61A27.67,27.67,0,0,1,.84,380.19,12.28,12.28,0,0,0,0,378.06Q0,191.34,0,4.63C1.39,2.75,2.83.92,5.1,0Z"/><path class="cls-1" d="M944.68,0C948.25,1.64,949,4.5,949,8.26q-.12,182.52-.08,365a44,44,0,0,1-.41,7.38,25.26,25.26,0,0,1-5.64,11.52q-25.85,32.26-51.67,64.55-19.1,23.87-38.23,47.72a42.6,42.6,0,0,1-6.08,6.31,24.2,24.2,0,0,1-15,5.33c-1,0-2,0-3,0H542.41c-.85,0-1.7,0-2.55,0a5.75,5.75,0,0,1-5.2-3.31,5.86,5.86,0,0,1,.56-6.34c.36-.5.76-1,1.14-1.46L905.87,43.1q15.19-19,30.38-38c1.53-1.91,3-3.89,5.19-5.12Z"/><path class="cls-1" d="M5.1,0C2.83.92,1.39,2.75,0,4.63V0Z"/></svg>