<svg width="189" height="41" viewBox="0 0 189 41" fill="none" xmlns="http://www.w3.org/2000/svg">
<g clip-path="url(#clip0)">
<path d="M112.938 2.91904V5.83791H115.479C116.886 5.83791 120.897 5.86054 124.425 5.88317L130.809 5.92842V8.259V10.5896H123.312C119.196 10.5896 115.794 10.6122 115.752 10.6348C115.71 10.6574 115.647 10.6574 115.626 10.6348C115.605 10.6122 115.416 10.6801 115.185 10.7932C114.975 10.9063 114.765 10.9742 114.723 10.9516C114.681 10.929 114.66 10.929 114.66 10.9742C114.66 11.0195 114.45 11.2684 114.198 11.5625C113.673 12.1282 113.127 13.2143 113.043 13.8705C113.022 14.0741 112.959 14.2099 112.917 14.1873C112.875 14.1646 112.854 16.2689 112.854 19.3914C112.854 22.2877 112.896 24.6409 112.917 24.6183C112.938 24.5956 113.022 24.7314 113.064 24.9124C113.295 25.7722 114.429 27.1072 115.269 27.5371C115.836 27.8313 115.101 27.8087 126.42 27.8539L135.849 27.8765V15.658C135.849 5.45326 135.828 3.34895 135.744 2.98692C135.681 2.73802 135.639 2.53438 135.66 2.53438C135.723 2.53438 135.261 1.6293 135.009 1.24465C134.715 0.792109 133.938 0.158555 133.707 0.158555C133.623 0.158555 133.56 0.113301 133.56 0.0680468C133.56 0.0227929 129.864 -0.0224609 123.249 -0.0224609H112.938V2.91904V2.91904ZM0 20.6133V40.9775H2.247H4.494V34.4836C4.494 28.3743 4.494 27.9897 4.641 27.9444C4.725 27.9218 8.085 27.8992 12.138 27.8765C19.971 27.8539 19.908 27.8765 20.643 27.4466C21.399 27.0393 22.26 25.8627 22.596 24.8445C22.764 24.3467 22.764 24.211 22.764 13.9157V3.50734L22.575 2.96429C22.092 1.69719 20.916 0.430078 20.16 0.430078C20.076 0.430078 19.992 0.384824 19.992 0.33957C19.992 0.294316 16.296 0.249062 9.996 0.249062H0V20.6133ZM153.069 0.362197C151.389 0.384824 148.197 0.430078 146.013 0.475331C141.33 0.543212 141.624 0.475331 140.721 1.49354C140.007 2.28549 139.44 3.50734 139.272 4.54818C139.23 4.86496 139.23 4.2314 139.293 13.78C139.335 19.6856 139.335 21.9257 139.251 22.7629C139.188 23.4643 139.188 23.7132 139.23 23.9847C139.272 24.2562 139.293 24.2562 139.314 24.3467C139.335 24.4373 139.44 25.0029 139.713 25.5686C139.86 25.8854 140.553 26.9262 140.763 27.1525C140.973 27.3561 141.057 27.424 141.288 27.605C142.275 28.4422 141.519 28.3743 150.108 28.397L157.458 28.4196V31.5421V34.6194H153.678H149.898V37.8098V41.0002L154.833 40.9775L159.768 40.9549L160.293 40.6381C161.28 40.0498 162.435 38.3302 162.435 37.493C162.435 37.3572 162.456 37.2667 162.477 37.2667C162.498 37.2667 162.519 28.9853 162.519 18.8484L162.498 0.430078H159.348C157.626 0.430078 156.198 0.407451 156.177 0.362197C156.156 0.33957 154.749 0.316943 153.069 0.362197ZM177.093 0.430078H165.879V3.52997V6.62986L167.433 6.65248C168.294 6.65248 171.381 6.69774 174.321 6.72036L179.655 6.76562L179.067 7.53493C178.752 7.96484 178.269 8.57577 178.122 8.77941C177.975 8.98306 177.702 9.32246 177.534 9.5261C177.366 9.72975 176.778 10.4991 176.232 11.2231C175.665 11.9472 175.161 12.6034 175.098 12.6712C175.035 12.7618 174.657 13.2369 174.321 13.6895C173.46 14.8434 173.187 15.1376 173.103 15.2733C172.893 15.5675 171.318 17.6265 171.234 17.6718C171.213 17.6944 170.919 18.0791 170.562 18.5316C170.226 18.9842 169.281 20.2739 168.945 20.6586C168.882 20.7264 168.357 21.3826 167.811 22.1293C167.244 22.876 166.656 23.6227 166.488 23.8263L166.194 24.1657V26.2474V28.3291L177.597 28.3743C183.876 28.397 189 28.4196 189.021 28.397C189.021 28.397 189.021 26.8357 188.979 24.935L188.937 21.4731L182.49 21.4505L176.043 21.4279L176.442 20.8622C176.904 20.2286 177.513 19.4141 179.487 16.7893C180.243 15.7938 181.167 14.5719 181.524 14.0741C182.322 13.0107 182.994 12.1056 183.687 11.2005C184.17 10.5669 186.018 8.10061 186.858 6.99189C187.068 6.69774 187.53 6.08681 187.887 5.63427C188.244 5.18173 188.538 4.77445 188.664 4.59343L188.916 4.25403V2.33074V0.407451L177.093 0.430078ZM27.615 0.407451L26.376 0.430078V3.34895V6.26783L35.259 6.29045L44.142 6.31308L44.163 8.62103L44.184 10.929L36.561 10.9516L28.938 10.9742L28.413 11.2458C27.489 11.7209 26.46 13.1917 26.334 14.2099C26.313 14.3004 26.271 14.6624 26.208 15.0018C26.166 15.3412 26.124 15.8164 26.166 16.02C26.187 16.2237 26.208 18.3732 26.208 20.7943C26.208 23.5095 26.25 25.1839 26.292 25.1839C26.334 25.1839 26.355 25.2066 26.355 25.2518C26.271 25.5912 27.489 27.2204 28.161 27.6729C29.022 28.2612 28.161 28.2159 39.207 28.2386L49.161 28.2612L49.14 16.0427C49.119 2.51176 49.14 3.14531 48.615 2.1271C48.237 1.42566 47.838 0.973124 47.229 0.63372L46.725 0.33957H37.779C32.886 0.384824 28.308 0.384824 27.615 0.407451ZM61.803 0.407451L52.458 0.430078V1.01838C52.458 1.35778 52.5 1.60668 52.542 1.60668C52.584 1.60668 52.626 6.10944 52.626 14.9339V28.2612H55.104H57.582L57.603 17.2871L57.624 6.31308H63.147H68.67L68.691 8.98306L68.712 11.653L69.72 11.6983C70.266 11.7209 71.421 11.7435 72.282 11.7435H73.836L73.794 11.2458C73.773 10.9742 73.731 9.14145 73.731 7.15028C73.71 4.14089 73.668 3.46209 73.563 3.10006C73.5 2.85116 73.458 2.57964 73.479 2.51176C73.5 2.44387 73.5 2.39862 73.458 2.42125C73.416 2.44387 73.311 2.28549 73.227 2.05922C72.891 1.26727 72.135 0.565839 71.4 0.362197C71.253 0.407451 66.948 0.384824 61.803 0.407451ZM77.112 9.36772C77.112 14.2778 77.091 20.5454 77.07 23.2833L77.028 28.2612H79.8H82.614V18.1017C82.614 12.5129 82.635 7.64807 82.656 7.28604L82.698 6.62986H86.751H90.804V17.4455V28.2612H93.408H96.012V18.4864C96.012 13.1012 96.033 8.21374 96.054 7.62544L96.096 6.53935L100.17 6.56198L104.244 6.5846L104.265 17.4229L104.286 28.2612H106.89H109.494L109.515 16.201C109.536 9.57136 109.515 4.11827 109.473 4.09564C109.452 4.07301 109.41 3.93725 109.431 3.80149C109.452 2.7154 108.507 1.13151 107.583 0.678974L107.121 0.452705H92.127H77.133V9.36772H77.112ZM157.584 14.0741L157.605 22.2424H151.032H144.459V14.0515V5.86054L151.011 5.88317L157.563 5.9058L157.584 14.0741ZM17.892 14.2551L17.871 22.4913L11.361 22.4687L4.851 22.4461L4.83 14.2325L4.809 6.01893H11.361H17.913L17.892 14.2551ZM130.662 19.6856V22.4913H124.131H117.6V19.6856V16.8799H124.131H130.662V19.6856ZM43.869 19.8666V22.6723H37.359H30.849V19.8666V17.0609H37.359H43.869V19.8666ZM7.098 36.5653V40.9097H7.644H8.19V39.552V38.1944H9.765C12.096 38.1944 11.97 38.3528 11.97 35.2756C11.97 32.1304 12.201 32.3793 9.261 32.2888L7.077 32.2209V36.5653H7.098ZM45.759 36.5879V40.9097H46.305H46.851V38.6243V36.339H48.195H49.539V38.6243V40.9097H50.085H50.631V38.2849V35.6602L50.379 35.3661L50.127 35.0719H48.447H46.767V33.669V32.2662H46.263H45.759V36.5879ZM90.342 36.5653V40.9097H90.888H91.434V39.552V38.1944H93.009C95.34 38.1944 95.214 38.3528 95.214 35.2529C95.193 32.0625 95.466 32.3567 92.526 32.2888L90.342 32.2209V36.5653V36.5653ZM132.468 33.6464V35.0493H130.83C128.541 35.0493 128.688 34.8456 128.688 38.0587V40.4119L128.919 40.6608L129.15 40.9097H131.313H133.476V36.5879V32.2662H132.972H132.468V33.6464ZM10.794 35.2529V36.9047H9.492H8.19V35.2529V33.6012H9.492H10.794V35.2529V35.2529ZM94.122 35.2529V36.9047H92.82H91.518V35.2529V33.6012H92.82H94.122V35.2529ZM31.038 37.9229V40.887H31.668H32.298V38.647V36.4069H33.096H33.894V38.647V40.887H34.482H35.07V38.647V36.4069H35.847H36.645V38.647V40.887H37.275H37.905L37.884 38.1265C37.863 35.3887 37.863 35.3661 37.674 35.185L37.485 34.9814L34.251 34.9588L31.017 34.9361V37.9229H31.038ZM73.605 35.1172C73.647 35.2077 73.752 35.615 73.878 36.0222C74.004 36.4522 74.151 36.9499 74.214 37.131C74.277 37.312 74.382 37.6966 74.466 37.9682C74.739 38.9411 75.075 40.0951 75.201 40.4797L75.327 40.8644L75.852 40.887L76.377 40.9097L76.482 40.6381C76.65 40.2309 76.776 39.8009 76.86 39.4615C76.902 39.3031 76.986 38.9637 77.07 38.7148C77.238 38.1944 77.196 38.1039 77.7 39.8009L78.015 40.8644L78.519 40.887C79.107 40.9097 79.023 41.0454 79.443 39.552C79.59 39.0543 79.758 38.5112 79.821 38.3302C79.884 38.1492 79.968 37.8776 80.01 37.7419C80.052 37.6061 80.115 37.3572 80.178 37.1988C80.241 37.0405 80.325 36.7689 80.367 36.6105C80.472 36.2938 80.682 35.5923 80.766 35.2756C80.808 35.0945 80.808 35.0945 80.115 35.0945H79.401L79.296 35.5018C79.233 35.7281 79.128 36.1127 79.065 36.3616C78.771 37.3799 78.687 37.6966 78.624 37.9682C78.603 38.1265 78.561 38.2397 78.519 38.1944C78.477 38.1492 78.099 37.0631 77.91 36.3616C77.847 36.158 77.763 35.9091 77.721 35.8186C77.679 35.7281 77.616 35.5244 77.574 35.3887C77.511 35.1624 77.469 35.1398 77.196 35.1172C76.839 35.0945 76.881 34.9814 76.314 36.7916C75.936 37.9908 75.873 38.1492 75.768 37.9682C75.705 37.855 75.453 36.9273 75.369 36.5427C75.348 36.4295 75.264 36.1354 75.18 35.9091C75.096 35.6828 75.012 35.3887 74.991 35.2529L74.949 35.0267H74.235C73.605 34.9588 73.542 34.9814 73.605 35.1172ZM114.429 37.9455V40.9097H115.059H115.689V38.6696V36.4295H116.487H117.285V38.6696V40.9097H117.915H118.545V38.6696V36.4295H119.343H120.141V38.6696V40.9097H120.771H121.401V38.3528C121.401 34.5967 121.821 34.9814 117.537 34.9814H114.471V37.9455H114.429ZM13.104 35.2303C12.957 35.4113 12.957 35.5697 12.936 37.9908L12.915 40.5476L13.125 40.7286C13.314 40.887 13.44 40.9097 14.616 40.9097H15.897V40.2761V39.6425H14.994H14.091V39.1221V38.6017H14.679H15.267V37.8776V37.1536H14.679H14.091V36.7689V36.3843H14.994H15.897V35.7055V35.0267H14.574C13.314 35.0493 13.251 35.0493 13.104 35.2303ZM16.926 37.9682V40.887H17.472H18.018L18.06 39.982C18.081 39.4842 18.102 38.4659 18.102 37.7419V36.4069H19.215H20.307V36.9499V37.493H20.853H21.399V36.5653C21.399 35.9317 21.357 35.5244 21.294 35.3434L21.189 35.0493H19.068H16.926V37.9682ZM22.533 35.3434C22.386 35.5923 22.365 35.7507 22.365 36.8142C22.365 38.6017 22.386 38.6243 24.633 38.6243H26.229V39.1448V39.6652H24.297H22.365V40.2987V40.9323H24.507C27.468 40.9323 27.279 41.0454 27.279 39.0769C27.279 37.1536 27.363 37.1988 25.032 37.1988H23.541V36.8142V36.4295H25.389H27.237V35.7507V35.0719H24.969H22.701L22.533 35.3434ZM39.375 35.7281V36.4069H41.265H43.155V36.8368V37.2667H41.433H39.711L39.543 37.5609C39.396 37.8098 39.375 37.9682 39.375 39.1221V40.4119L39.606 40.6608L39.837 40.9097H42.042H44.247V38.1718V35.4339L44.058 35.2529C43.869 35.0719 43.827 35.0719 41.622 35.0719H39.354V35.7281H39.375ZM52.227 35.7281V36.4069H54.033H55.839V36.8368V37.2667H54.159H52.479L52.332 37.493C52.059 37.8776 52.101 40.344 52.374 40.6608L52.563 40.8644L54.831 40.887L57.099 40.9097L57.057 38.2397C57.015 36.0675 56.994 35.5018 56.889 35.2982L56.763 35.0493H54.474H52.185V35.7281H52.227ZM58.8 35.1172C58.401 35.5471 58.401 38.3528 58.8 38.3528C58.863 38.3528 58.905 38.3981 58.926 38.4659C58.947 38.5565 59.388 38.5791 60.669 38.6017L62.37 38.6243V39.1221V39.6199H60.438H58.506V40.2535V40.887H60.69C63.084 40.887 63.105 40.887 63.336 40.3666C63.546 39.9367 63.504 38.1265 63.273 37.6514L63.105 37.2667L61.383 37.2441L59.661 37.2215V36.7916V36.3616H61.509H63.357V35.6828V35.004H61.089C59.871 35.0493 58.842 35.0719 58.8 35.1172ZM64.89 37.9682V40.887H65.562H66.234V37.9682V35.0493H65.562H64.89V37.9682ZM67.893 35.3208C67.767 35.5697 67.746 35.7507 67.746 36.7463C67.746 38.6017 67.704 38.5565 69.909 38.6017L71.568 38.647L71.589 39.1448L71.61 39.6425H69.678H67.746V40.2761V40.9097H69.93C72.744 40.9097 72.702 40.9323 72.702 39.0995C72.702 37.2441 72.723 37.2667 70.602 37.2667H68.922V36.8368V36.4069H70.77H72.618V35.7281V35.0493H70.329H68.04L67.893 35.3208ZM81.753 35.7281V36.4069H83.643H85.533V36.8368V37.2667H83.853H82.173L81.963 37.5382C81.648 37.9455 81.648 40.2309 81.963 40.6381L82.173 40.887L84.399 40.9097L86.625 40.9323V38.1944C86.625 34.6646 86.961 35.0719 84.042 35.0719H81.753V35.7281V35.7281ZM96.474 35.7281V36.4069H98.322H100.17V36.8368V37.2667H98.49H96.81L96.6 37.6288C96.411 37.9682 96.39 38.0813 96.39 39.0769C96.39 40.9549 96.327 40.9097 99.141 40.9097H101.346V38.1944C101.346 35.5923 101.346 35.4792 101.178 35.2756L101.01 35.0493H98.742H96.474V35.7281ZM102.627 37.9682V40.887H103.173H103.719V38.647V36.4069H104.811H105.924V36.9499V37.493H106.512H107.1V36.5427C107.1 35.7507 107.079 35.5471 106.953 35.3208L106.806 35.0493H104.727H102.648V37.9682H102.627ZM108.381 35.7281V36.4069H110.229H112.077V36.8368V37.2667L110.376 37.2893L108.675 37.312L108.507 37.6514C108.339 37.9455 108.318 38.1039 108.318 39.0769C108.318 40.9549 108.255 40.9097 111.09 40.9097H113.274L113.232 38.1265C113.19 34.642 113.526 35.0493 110.649 35.0493H108.423V35.7281H108.381ZM122.556 35.7281V36.4069H124.404H126.252V36.8368V37.2667L124.572 37.2893L122.892 37.312L122.703 37.6061C122.535 37.8776 122.514 37.9908 122.514 39.0769C122.514 40.9775 122.43 40.9323 125.265 40.9323H127.386V38.2171C127.386 35.615 127.386 35.5018 127.218 35.2982L127.05 35.0719H124.782H122.493V35.7281H122.556ZM134.757 37.9682V40.887H135.429H136.101V37.9682V35.0493H135.429H134.757V37.9682ZM137.361 37.9682V40.887H137.991H138.621V38.6922V36.4748H139.524H140.427V38.6922V40.9097H141.057H141.687V38.1944C141.687 35.5923 141.687 35.4792 141.519 35.2756L141.351 35.0493H139.356H137.361V37.9682ZM143.031 35.7281V36.4069H144.837H146.643V36.7916V37.1762H145.194C142.905 37.1762 142.989 37.1083 142.989 39.0769C142.989 40.4119 142.989 40.4345 143.178 40.6381L143.367 40.8418L145.635 40.8644L147.903 40.887L147.882 38.1944C147.861 35.6602 147.84 35.4792 147.693 35.2756L147.546 35.0493H145.278H143.01V35.7281H143.031ZM132.468 37.9682V39.6199H131.166H129.864V37.9682V36.3164H131.166H132.468V37.9682ZM43.008 39.1221V39.6425H41.706H40.404V39.1221V38.6017H41.706H43.008V39.1221ZM55.839 39.1221V39.6425H54.537H53.235V39.1221V38.6017H54.537H55.839V39.1221ZM85.449 39.1221V39.6425H84.105H82.761V39.1221V38.6017H84.105H85.449V39.1221ZM100.107 39.1221V39.6425H98.805H97.503V39.1221V38.6017H98.805H100.107V39.1221ZM111.993 39.1221V39.6425H110.691H109.389V39.1221V38.6017H110.691H111.993V39.1221ZM126.252 39.1221V39.6425H124.95H123.648V39.1221V38.6017H124.95H126.252V39.1221ZM146.58 39.1221V39.6425H145.32H144.06V39.1221V38.6017H145.32H146.58V39.1221Z" fill="white"/>
</g>
<defs>
<clipPath id="clip0">
<rect width="189" height="41" fill="white"/>
</clipPath>
</defs>
</svg>
