<?xml version="1.0" encoding="utf-8"?>
<!-- Generator: Adobe Illustrator 21.0.0, SVG Export Plug-In . SVG Version: 6.00 Build 0)  -->
<svg version="1.1" id="svg" xmlns="http://www.w3.org/2000/svg" xmlns:xlink="http://www.w3.org/1999/xlink" x="0px" y="0px"
	 viewBox="0 0 900 181.2" style="enable-background:new 0 0 900 181.2;" xml:space="preserve">
<style type="text/css">
	.st0{fill:#FFFFFF;}
</style>
<g id="svgg">
	<path id="path0" class="st0" d="M537.8,12.9v12.9h12.1c6.7,0,25.8,0.1,42.6,0.2l30.4,0.2v10.3v10.3l-35.7,0
		c-19.6,0-35.8,0.1-36,0.2c-0.2,0.1-0.5,0.1-0.6,0c-0.1-0.1-1,0.2-2.1,0.7c-1,0.5-2,0.8-2.2,0.7c-0.2-0.1-0.3-0.1-0.3,0.1
		c0,0.2-1,1.3-2.2,2.6c-2.5,2.5-5.1,7.3-5.5,10.2c-0.1,0.9-0.4,1.5-0.6,1.4c-0.2-0.1-0.3,9.2-0.3,23c0,12.8,0.2,23.2,0.3,23.1
		c0.1-0.1,0.5,0.5,0.7,1.3c1.1,3.8,6.5,9.7,10.5,11.6c2.7,1.3-0.8,1.2,53.1,1.4l44.9,0.1l0-54c0-45.1-0.1-54.4-0.5-56
		c-0.3-1.1-0.5-2-0.4-2c0.3,0-1.9-4-3.1-5.7c-1.4-2-5.1-4.8-6.2-4.8c-0.4,0-0.7-0.2-0.7-0.4c0-0.2-17.6-0.4-49.1-0.4l-49.1,0V12.9
		 M0,91.1v90h10.7h10.7v-28.7c0-27,0-28.7,0.7-28.9c0.4-0.1,16.4-0.2,35.7-0.3c37.3-0.1,37,0,40.5-1.9c3.6-1.8,7.7-7,9.3-11.5
		c0.8-2.2,0.8-2.8,0.8-48.3V15.5l-0.9-2.4C105.2,7.5,99.6,1.9,96,1.9c-0.4,0-0.8-0.2-0.8-0.4c0-0.2-17.6-0.4-47.6-0.4L0,1.1V91.1
		 M728.9,1.6c-8,0.1-23.2,0.3-33.6,0.5c-22.3,0.3-20.9,0-25.2,4.5c-3.4,3.5-6.1,8.9-6.9,13.5c-0.2,1.4-0.2-1.4,0.1,40.8
		c0.2,26.1,0.2,36-0.2,39.7c-0.3,3.1-0.3,4.2-0.1,5.4c0.2,1.2,0.3,1.2,0.4,1.6c0.1,0.4,0.6,2.9,1.9,5.4c0.7,1.4,4,6,5,7
		c1,0.9,1.4,1.2,2.5,2c4.7,3.7,1.1,3.4,42,3.5l35,0.1v13.8V153h-18h-18v14.1v14.1l23.5-0.1l23.5-0.1l2.5-1.4
		c4.7-2.6,10.2-10.2,10.2-13.9c0-0.6,0.1-1,0.2-1c0.1,0,0.2-36.6,0.2-81.4l-0.1-81.4h-15c-8.2,0-15-0.1-15.1-0.3
		C743.6,1.5,736.9,1.4,728.9,1.6 M843.3,1.9h-53.4v13.7v13.7l7.4,0.1c4.1,0,18.8,0.2,32.8,0.3l25.4,0.2l-2.8,3.4
		c-1.5,1.9-3.8,4.6-4.5,5.5c-0.7,0.9-2,2.4-2.8,3.3c-0.8,0.9-3.6,4.3-6.2,7.5c-2.7,3.2-5.1,6.1-5.4,6.4c-0.3,0.4-2.1,2.5-3.7,4.5
		c-4.1,5.1-5.4,6.4-5.8,7c-1,1.3-8.5,10.4-8.9,10.6c-0.1,0.1-1.5,1.8-3.2,3.8c-1.6,2-6.1,7.7-7.7,9.4c-0.3,0.3-2.8,3.2-5.4,6.5
		c-2.7,3.3-5.5,6.6-6.3,7.5l-1.4,1.5l0,9.2l0,9.2l54.3,0.2c29.9,0.1,54.3,0.2,54.4,0.1c0,0,0-6.9-0.2-15.3l-0.2-15.3l-30.7-0.1
		l-30.7-0.1l1.9-2.5c2.2-2.8,5.1-6.4,14.5-18c3.6-4.4,8-9.8,9.7-12c3.8-4.7,7-8.7,10.3-12.7c2.3-2.8,11.1-13.7,15.1-18.6
		c1-1.3,3.2-4,4.9-6c1.7-2,3.1-3.8,3.7-4.6l1.2-1.5l0-8.5l0-8.5L843.3,1.9z M131.5,1.8l-5.9,0.1v12.9v12.9l42.3,0.1l42.3,0.1
		l0.1,10.2l0.1,10.2l-36.3,0.1l-36.3,0.1l-2.5,1.2c-4.4,2.1-9.3,8.6-9.9,13.1c-0.1,0.4-0.3,2-0.6,3.5c-0.2,1.5-0.4,3.6-0.2,4.5
		c0.1,0.9,0.2,10.4,0.2,21.1c0,12,0.2,19.4,0.4,19.4c0.2,0,0.3,0.1,0.3,0.3c-0.4,1.5,5.4,8.7,8.6,10.7c4.1,2.6,0,2.4,52.6,2.5
		l47.4,0.1l-0.1-54c-0.1-59.8,0-57-2.5-61.5c-1.8-3.1-3.7-5.1-6.6-6.6l-2.4-1.3l-42.6,0C156.6,1.7,134.8,1.7,131.5,1.8 M294.3,1.8
		l-44.5,0.1v2.6c0,1.5,0.2,2.6,0.4,2.6c0.2,0,0.4,19.9,0.4,58.9v58.9h11.8h11.8l0.1-48.5l0.1-48.5h26.3h26.3l0.1,11.8l0.1,11.8
		l4.8,0.2c2.6,0.1,8.1,0.2,12.2,0.2l7.4,0l-0.2-2.2c-0.1-1.2-0.3-9.3-0.3-18.1c-0.1-13.3-0.3-16.3-0.8-17.9
		c-0.3-1.1-0.5-2.3-0.4-2.6c0.1-0.3,0.1-0.5-0.1-0.4c-0.2,0.1-0.7-0.6-1.1-1.6c-1.6-3.5-5.2-6.6-8.7-7.5
		C339.3,1.8,318.8,1.7,294.3,1.8 M367.2,41.4c0,21.7-0.1,49.4-0.2,61.5l-0.2,22H380h13.4V80c0-24.7,0.1-46.2,0.2-47.8l0.2-2.9h19.3
		h19.3v47.8v47.8h12.4h12.4V81.7c0-23.8,0.1-45.4,0.2-48l0.2-4.8L477,29l19.4,0.1l0.1,47.9l0.1,47.9h12.4h12.4l0.1-53.3
		c0.1-29.3,0-53.4-0.2-53.5c-0.1-0.1-0.3-0.7-0.2-1.3c0.1-4.8-4.4-11.8-8.8-13.8l-2.2-1h-71.4h-71.4V41.4 M750.4,62.2l0.1,36.1
		h-31.3h-31.3V62.1V25.9l31.2,0.1l31.2,0.1L750.4,62.2 M85.2,63l-0.1,36.4l-31-0.1l-31-0.1L23,62.9l-0.1-36.3h31.2h31.2L85.2,63
		 M622.2,87v12.4h-31.1h-31.1V87V74.6h31.1h31.1V87 M208.9,87.8v12.4h-31h-31V87.8V75.4h31h31V87.8 M33.8,161.6v19.2h2.6H39v-6v-6
		h7.5c11.1,0,10.5,0.7,10.5-12.9c0-13.9,1.1-12.8-12.9-13.2l-10.4-0.3V161.6 M217.9,161.7v19.1h2.6h2.6v-10.1v-10.1h6.4h6.4v10.1
		v10.1h2.6h2.6v-11.6v-11.6l-1.2-1.3l-1.2-1.3h-8h-8v-6.2v-6.2h-2.4h-2.4V161.7 M430.2,161.6v19.2h2.6h2.6v-6v-6h7.5
		c11.1,0,10.5,0.7,10.5-13c-0.1-14.1,1.2-12.8-12.8-13.1l-10.4-0.3V161.6 M630.8,148.7v6.2l-7.8,0c-10.9,0-10.2-0.9-10.2,13.3v10.4
		l1.1,1.1l1.1,1.1h10.3h10.3v-19.1v-19.1h-2.4h-2.4V148.7 M51.4,155.8v7.3h-6.2H39v-7.3v-7.3h6.2h6.2V155.8 M448.2,155.8v7.3H442
		h-6.2v-7.3v-7.3h6.2h6.2V155.8 M147.8,167.6v13.1h3h3v-9.9v-9.9h3.8h3.8v9.9v9.9h2.8h2.8v-9.9v-9.9h3.7h3.8v9.9v9.9h3h3l-0.1-12.2
		c-0.1-12.1-0.1-12.2-1-13l-0.9-0.9l-15.4-0.1l-15.4-0.1V167.6 M350.5,155.2c0.2,0.4,0.7,2.2,1.3,4c0.6,1.9,1.3,4.1,1.6,4.9
		c0.3,0.8,0.8,2.5,1.2,3.7c1.3,4.3,2.9,9.4,3.5,11.1l0.6,1.7l2.5,0.1l2.5,0.1l0.5-1.2c0.8-1.8,1.4-3.7,1.8-5.2
		c0.2-0.7,0.6-2.2,1-3.3c0.8-2.3,0.6-2.7,3,4.8l1.5,4.7l2.4,0.1c2.8,0.1,2.4,0.7,4.4-5.9c0.7-2.2,1.5-4.6,1.8-5.4
		c0.3-0.8,0.7-2,0.9-2.6c0.2-0.6,0.5-1.7,0.8-2.4c0.3-0.7,0.7-1.9,0.9-2.6c0.5-1.4,1.5-4.5,1.9-5.9c0.2-0.8,0.2-0.8-3.1-0.8h-3.4
		l-0.5,1.8c-0.3,1-0.8,2.7-1.1,3.8c-1.4,4.5-1.8,5.9-2.1,7.1c-0.1,0.7-0.3,1.2-0.5,1c-0.2-0.2-2-5-2.9-8.1c-0.3-0.9-0.7-2-0.9-2.4
		c-0.2-0.4-0.5-1.3-0.7-1.9c-0.3-1-0.5-1.1-1.8-1.2c-1.7-0.1-1.5-0.6-4.2,7.4c-1.8,5.3-2.1,6-2.6,5.2c-0.3-0.5-1.5-4.6-1.9-6.3
		c-0.1-0.5-0.5-1.8-0.9-2.8c-0.4-1-0.8-2.3-0.9-2.9l-0.2-1h-3.4C350.5,154.5,350.2,154.6,350.5,155.2 M544.9,167.7v13.1h3h3v-9.9
		v-9.9h3.8h3.8v9.9v9.9h3h3v-9.9v-9.9h3.8h3.8v9.9v9.9h3h3l0-11.3c0-16.6,2-14.9-18.4-14.9h-14.6V167.7 M62.4,155.7
		c-0.7,0.8-0.7,1.5-0.8,12.2l-0.1,11.3l1,0.8c0.9,0.7,1.5,0.8,7.1,0.8h6.1V178v-2.8h-4.3h-4.3v-2.3v-2.3h2.8h2.8v-3.2v-3.2h-2.8
		h-2.8v-1.7v-1.7h4.3h4.3v-3v-3h-6.3C63.4,154.9,63.1,154.9,62.4,155.7 M80.6,167.8v12.9h2.6h2.6l0.2-4c0.1-2.2,0.2-6.7,0.2-9.9
		v-5.9h5.3h5.2v2.4v2.4h2.6h2.6v-4.1c0-2.8-0.2-4.6-0.5-5.4l-0.5-1.3H90.8H80.6V167.8 M107.3,156.2c-0.7,1.1-0.8,1.8-0.8,6.5
		c0,7.9,0.1,8,10.8,8l7.6,0v2.3v2.3h-9.2h-9.2v2.8v2.8l10.2,0c14.1,0,13.2,0.5,13.2-8.2c0-8.5,0.4-8.3-10.7-8.3h-7.1v-1.7v-1.7h8.8
		h8.8v-3v-3h-10.8h-10.8L107.3,156.2 M187.5,157.9v3h9h9v1.9v1.9h-8.2h-8.2l-0.8,1.3c-0.7,1.1-0.8,1.8-0.8,6.9v5.7l1.1,1.1l1.1,1.1
		h10.5h10.5v-12.1v-12.1l-0.9-0.8c-0.9-0.8-1.1-0.8-11.6-0.8h-10.8V157.9 M248.7,157.9v3h8.6h8.6v1.9v1.9l-8,0l-8,0l-0.7,1
		c-1.3,1.7-1.1,12.6,0.2,14l0.9,0.9l10.8,0.1l10.8,0.1l-0.2-11.8c-0.2-9.6-0.3-12.1-0.8-13l-0.6-1.1h-10.9h-10.9V157.9 M280,155.2
		c-1.9,1.9-1.9,14.3,0,14.3c0.3,0,0.5,0.2,0.6,0.5c0.1,0.4,2.2,0.5,8.3,0.6l8.1,0.1v2.2v2.2h-9.2h-9.2v2.8v2.8h10.4
		c11.4,0,11.5,0,12.6-2.3c1-1.9,0.8-9.9-0.3-12l-0.8-1.7l-8.2-0.1l-8.2-0.1v-1.9v-1.9h8.8h8.8v-3v-3h-10.8
		C285.1,154.9,280.2,155,280,155.2 M309,167.8v12.9h3.2h3.2v-12.9v-12.9h-3.2H309V167.8 M323.3,156.1c-0.6,1.1-0.7,1.9-0.7,6.3
		c0,8.2-0.2,8,10.3,8.2l7.9,0.2l0.1,2.2l0.1,2.2h-9.2h-9.2v2.8v2.8H333c13.4,0,13.2,0.1,13.2-8c0-8.2,0.1-8.1-10-8.1h-8v-1.9v-1.9
		h8.8h8.8v-3v-3h-10.9H324L323.3,156.1 M389.3,157.9v3h9h9v1.9v1.9h-8h-8l-1,1.2c-1.5,1.8-1.5,11.9,0,13.7l1,1.1l10.6,0.1l10.6,0.1
		l0-12.1c0-15.6,1.6-13.8-12.3-13.8h-10.9V157.9 M459.4,157.9v3h8.8h8.8v1.9v1.9h-8h-8l-1,1.6c-0.9,1.5-1,2-1,6.4
		c0,8.3-0.3,8.1,13.1,8.1h10.5v-12c0-11.5,0-12-0.8-12.9l-0.8-1h-10.8h-10.8V157.9 M488.7,167.8v12.9h2.6h2.6v-9.9v-9.9h5.2h5.3v2.4
		v2.4h2.8h2.8l0-4.2c0-3.5-0.1-4.4-0.7-5.4l-0.7-1.2h-9.9h-9.9V167.8 M516.1,157.9v3h8.8h8.8v1.9v1.9l-8.1,0.1l-8.1,0.1l-0.8,1.5
		c-0.8,1.3-0.9,2-0.9,6.3c0,8.3-0.3,8.1,13.2,8.1h10.4l-0.2-12.3c-0.2-15.4,1.4-13.6-12.3-13.6h-10.6V157.9 M583.6,157.9v3h8.8h8.8
		v1.9v1.9l-8,0.1l-8,0.1l-0.9,1.3c-0.8,1.2-0.9,1.7-0.9,6.5c0,8.4-0.4,8.2,13.1,8.2h10.1v-12c0-11.5,0-12-0.8-12.9l-0.8-1h-10.8
		h-10.9V157.9 M641.7,167.8v12.9h3.2h3.2v-12.9v-12.9h-3.2h-3.2V167.8 M654.1,167.8v12.9h3h3V171v-9.8h4.3h4.3v9.8v9.8h3h3v-12
		c0-11.5,0-12-0.8-12.9l-0.8-1h-9.5h-9.5V167.8 M681.1,157.9v3h8.6h8.6v1.7v1.7h-6.9c-10.9,0-10.5-0.3-10.5,8.4c0,5.9,0,6,0.9,6.9
		l0.9,0.9l10.8,0.1l10.8,0.1l-0.1-11.9c-0.1-11.2-0.2-12-0.9-12.9l-0.7-1l-10.8,0l-10.8,0V157.9 M630.8,167.8v7.3h-6.2h-6.2v-7.3
		v-7.3h6.2h6.2V167.8 M204.8,172.9v2.3h-6.2h-6.2v-2.3v-2.3h6.2h6.2V172.9 M265.9,172.9v2.3h-6.2h-6.2v-2.3v-2.3h6.2h6.2V172.9
		 M406.9,172.9v2.3h-6.4h-6.4v-2.3v-2.3h6.4h6.4V172.9 M476.7,172.9v2.3h-6.2h-6.2v-2.3v-2.3h6.2h6.2V172.9 M533.3,172.9v2.3h-6.2
		h-6.2v-2.3v-2.3h6.2h6.2V172.9 M601.2,172.9v2.3H595h-6.2v-2.3v-2.3h6.2h6.2V172.9 M698,172.9v2.3h-6h-6v-2.3v-2.3h6h6V172.9"/>
</g>
</svg>
