<svg class="icon-games" width="58" height="50" viewBox="0 0 58 50" fill="none" xmlns="http://www.w3.org/2000/svg">
<path d="M54.9961 31.2912C54.859 28.4265 54.3107 25.2504 53.4883 22.2611C52.6658 19.3963 51.6378 16.7184 50.4041 14.6632C45.6065 7.00315 40.3977 8.18641 34.1609 9.68107C32.1733 10.117 30.0487 10.6152 27.8555 10.802H27.1702C24.977 10.6152 22.8523 10.117 20.8648 9.68107C14.6279 8.2487 9.41914 7.00315 4.62154 14.7255C3.38788 16.7806 2.29129 19.4586 1.53739 22.3234C0.714941 25.3126 0.166649 28.4888 0.0295758 31.3535C-0.107498 34.5297 0.235186 36.8339 0.989093 38.4531C1.743 39.9477 2.83958 40.8819 4.27885 41.2556C5.58106 41.567 7.08887 41.4424 8.6652 40.8197C11.3382 39.8232 14.4223 37.7058 17.4379 35.1525C19.5626 33.2841 23.5377 32.3499 27.5128 32.3499C31.488 32.3499 35.4631 33.2841 37.5877 35.1525C40.6033 37.7058 43.6875 39.8232 46.3604 40.8197C47.9368 41.3802 49.4446 41.567 50.7468 41.2556C52.1175 40.8819 53.2827 40.01 54.0365 38.3909C54.7905 36.8339 55.1332 34.5297 54.9961 31.2912ZM51.7063 37.519C51.2951 38.3909 50.7468 38.889 50.0614 39.0759C49.3075 39.2627 48.348 39.1381 47.2514 38.7645C44.8526 37.8926 42.0426 35.962 39.3012 33.5955C36.6968 31.229 32.1048 30.0457 27.5128 30.0457C22.9209 30.0457 18.3289 31.229 15.656 33.4709C12.846 35.8374 10.0359 37.8304 7.70572 38.6399C6.6091 39.0136 5.64959 39.2004 4.89569 38.9513C4.21032 38.7645 3.66202 38.2663 3.2508 37.3944C2.70251 36.2111 2.42836 34.2805 2.56544 31.4158C2.70251 28.7379 3.18227 25.6863 4.00471 22.8215C4.75862 20.1436 5.71813 17.6525 6.88327 15.7842C10.6528 9.61877 15.0392 10.6152 20.2479 11.8608C22.3726 12.359 24.5657 12.8572 26.9645 13.0441C27.0331 13.0441 27.0331 13.0441 27.1016 13.0441H27.8555C27.924 13.0441 27.924 13.0441 27.9926 13.0441C30.4599 12.8572 32.6531 12.359 34.7777 11.8608C39.9865 10.6775 44.3728 9.61877 48.1424 15.7842C49.3075 17.6525 50.267 20.0813 51.0209 22.8215C51.7748 25.6863 52.3231 28.6756 52.4602 31.4158C52.5973 34.2805 52.3231 36.2111 51.7063 37.519Z" />
<path d="M22.3539 19.1466C21.6315 18.5861 20.7646 18.1501 19.7532 18.0878C19.681 17.2782 19.2475 16.4686 18.5974 15.9082L18.5251 15.8459C17.7304 15.1608 16.7191 14.7871 15.5632 14.7871C14.4073 14.7871 13.3237 15.2231 12.6013 15.8459C11.9512 16.4063 11.4454 17.2159 11.3732 18.0878C10.3618 18.1501 9.49492 18.5238 8.77252 19.0843L8.70026 19.1466C7.9056 19.8316 7.47217 20.7035 7.47217 21.6999C7.47217 22.6963 7.97786 23.6305 8.70026 24.2533C9.42266 24.8761 10.2896 25.2497 11.3732 25.312C11.4454 26.1838 11.8789 26.9935 12.6013 27.554C13.396 28.239 14.4073 28.6127 15.5632 28.6127C16.7191 28.6127 17.8027 28.1768 18.5251 27.554C19.1753 26.9312 19.681 26.1838 19.7532 25.312C20.7646 25.2497 21.7037 24.8761 22.3539 24.2533C23.1485 23.5682 23.582 22.6963 23.582 21.6999C23.582 20.7035 23.0763 19.7693 22.3539 19.1466ZM20.5478 22.6341C20.2589 22.8831 19.8977 23.0077 19.4643 23.0077H18.4528C17.7304 23.0077 17.0803 23.5059 17.0803 24.191V25.0006C17.0803 25.3743 16.9358 25.6857 16.6468 25.9347C16.3579 26.1838 15.9967 26.3084 15.5632 26.3084C15.1297 26.3084 14.7686 26.1838 14.4796 25.9347C14.1906 25.6857 14.0461 25.3743 14.0461 25.0006V24.1287C14.0461 23.5059 13.4682 22.9454 12.6736 22.9454H11.6622C11.2287 22.9454 10.8675 22.8209 10.5786 22.5718C10.3618 22.385 10.1451 22.0736 10.1451 21.6999C10.1451 21.3263 10.2896 21.0149 10.5786 20.7657C10.5786 20.7657 10.5786 20.7657 10.6508 20.7035C10.9397 20.5166 11.301 20.3921 11.6622 20.3921H12.6736C13.396 20.3921 14.0461 19.8938 14.0461 19.2088V18.337C14.0461 17.9633 14.1906 17.6519 14.4796 17.4028C14.7686 17.1537 15.1297 17.0291 15.5632 17.0291C15.9967 17.0291 16.3579 17.1537 16.6468 17.4028C16.6468 17.4028 16.6468 17.4028 16.7191 17.465C16.9358 17.7142 17.0803 18.0256 17.0803 18.337V19.2088C17.0803 19.8316 17.6582 20.3921 18.4528 20.3921H19.4643C19.8977 20.3921 20.2589 20.5166 20.5478 20.7657C20.8368 21.0149 20.9813 21.3263 20.9813 21.6999C20.9813 22.0736 20.8368 22.385 20.5478 22.6341Z" />
<path d="M41.5699 19.458C42.9664 19.458 44.0984 18.4822 44.0984 17.2784C44.0984 16.0745 42.9664 15.0986 41.5699 15.0986C40.1735 15.0986 39.0415 16.0745 39.0415 17.2784C39.0415 18.4822 40.1735 19.458 41.5699 19.458Z" />
<path d="M41.5699 28.3018C42.9664 28.3018 44.0984 27.3259 44.0984 26.1221C44.0984 24.9183 42.9664 23.9424 41.5699 23.9424C40.1735 23.9424 39.0415 24.9183 39.0415 26.1221C39.0415 27.3259 40.1735 28.3018 41.5699 28.3018Z" />
<path d="M36.441 23.8809C37.8374 23.8809 38.9695 22.905 38.9695 21.7011C38.9695 20.4973 37.8374 19.5215 36.441 19.5215C35.0446 19.5215 33.9126 20.4973 33.9126 21.7011C33.9126 22.905 35.0446 23.8809 36.441 23.8809Z" />
<path d="M46.6988 23.8809C48.0953 23.8809 49.2273 22.905 49.2273 21.7011C49.2273 20.4973 48.0953 19.5215 46.6988 19.5215C45.3024 19.5215 44.1704 20.4973 44.1704 21.7011C44.1704 22.905 45.3024 23.8809 46.6988 23.8809Z" />
</svg>
